<svg width="17" height="11" viewBox="0 0 17 11" fill="none" xmlns="http://www.w3.org/2000/svg">
<path d="M3.696 10.14C3.00533 10.14 2.32867 10.042 1.666 9.846C1.01267 9.64067 0.462 9.36067 0.014 9.006L0.798 7.592C1.15267 7.88133 1.582 8.11467 2.086 8.292C2.59 8.46933 3.11733 8.558 3.668 8.558C4.32133 8.558 4.83 8.42733 5.194 8.166C5.558 7.89533 5.74 7.53133 5.74 7.074C5.74 6.626 5.572 6.27133 5.236 6.01C4.9 5.74867 4.35867 5.618 3.612 5.618H2.716V4.372L5.516 1.04L5.754 1.726H0.49V0.199999H7.168V1.418L4.368 4.75L3.416 4.19H3.962C5.166 4.19 6.06667 4.46067 6.664 5.002C7.27067 5.534 7.574 6.22 7.574 7.06C7.574 7.61067 7.434 8.11933 7.154 8.586C6.874 9.05267 6.44467 9.43067 5.866 9.72C5.29667 10 4.57333 10.14 3.696 10.14ZM12.8524 10.14C12.0778 10.14 11.3778 9.944 10.7524 9.552C10.1364 9.16 9.6511 8.59067 9.29644 7.844C8.94177 7.088 8.76444 6.17333 8.76444 5.1C8.76444 4.02667 8.94177 3.11667 9.29644 2.37C9.6511 1.614 10.1364 1.04 10.7524 0.647999C11.3778 0.255999 12.0778 0.0599995 12.8524 0.0599995C13.6364 0.0599995 14.3364 0.255999 14.9524 0.647999C15.5684 1.04 16.0538 1.614 16.4084 2.37C16.7724 3.11667 16.9544 4.02667 16.9544 5.1C16.9544 6.17333 16.7724 7.088 16.4084 7.844C16.0538 8.59067 15.5684 9.16 14.9524 9.552C14.3364 9.944 13.6364 10.14 12.8524 10.14ZM12.8524 8.558C13.3098 8.558 13.7064 8.43667 14.0424 8.194C14.3784 7.942 14.6398 7.55933 14.8264 7.046C15.0224 6.53267 15.1204 5.884 15.1204 5.1C15.1204 4.30667 15.0224 3.658 14.8264 3.154C14.6398 2.64067 14.3784 2.26267 14.0424 2.02C13.7064 1.768 13.3098 1.642 12.8524 1.642C12.4138 1.642 12.0218 1.768 11.6764 2.02C11.3404 2.26267 11.0744 2.64067 10.8784 3.154C10.6918 3.658 10.5984 4.30667 10.5984 5.1C10.5984 5.884 10.6918 6.53267 10.8784 7.046C11.0744 7.55933 11.3404 7.942 11.6764 8.194C12.0218 8.43667 12.4138 8.558 12.8524 8.558Z" fill="black"/>
</svg>
