<svg width="24" height="24" viewBox="0 0 24 24" fill="none" xmlns="http://www.w3.org/2000/svg">
<path d="M12.6657 19.841C15.1665 19.3397 18.3998 17.5407 18.3998 12.8888C18.3998 8.65558 15.3011 5.83665 13.073 4.54138C12.5786 4.25396 11.9998 4.63195 11.9998 5.20384V6.66662C11.9998 7.82011 11.5148 9.92559 10.1673 10.8013C9.47926 11.2485 8.73622 10.5793 8.6526 9.763L8.58394 9.09274C8.50412 8.31353 7.71054 7.84051 7.08777 8.31558C5.96898 9.16905 4.7998 10.6636 4.7998 12.8888C4.7998 18.5777 9.03092 20 11.1465 20C11.2695 20 11.3988 19.9963 11.5335 19.9885C10.4889 19.8992 8.7998 19.2511 8.7998 17.1553C8.7998 15.5158 9.99586 14.4067 10.9046 13.8676C11.149 13.7226 11.4351 13.9108 11.4351 14.195V14.6664C11.4351 15.0271 11.5746 15.591 11.9067 15.977C12.2825 16.4138 12.8341 15.9562 12.8786 15.3818C12.8926 15.2005 13.0749 15.085 13.2319 15.1768C13.7449 15.4766 14.3998 16.1171 14.3998 17.1553C14.3998 18.7937 13.4966 19.5474 12.6657 19.841Z" fill="#F0C85B"/>
</svg>
