<svg width="24" height="24" viewBox="0 0 24 24" fill="none" xmlns="http://www.w3.org/2000/svg">
<path d="M23.4298 14.7739L8.18981 23.5866C7.58847 23.9339 6.61381 23.9339 6.01247 23.5866L0.569807 20.4393C0.269141 20.2653 0.119141 20.0379 0.119141 19.8099V18.5813L15.8091 10.3679C16.4105 10.0206 17.3851 10.0206 17.9865 10.3679L23.8798 12.9139C23.8798 13.2859 23.8765 13.9119 23.8798 14.1366C23.8838 14.3666 23.7338 14.5979 23.4298 14.7739Z" fill="#99AAB5"/>
<path d="M23.4301 13.563L8.19014 22.3757C7.58881 22.723 6.61414 22.723 6.01281 22.3757L0.570141 19.2283C-0.0311927 18.881 -0.0311927 18.317 0.570141 17.9697L15.8101 9.15698C16.4115 8.80965 17.3861 8.80965 17.9875 9.15698L23.4301 12.3043C24.0308 12.6517 24.0308 13.2157 23.4301 13.563Z" fill="#CCD6DD"/>
<path d="M22 12.6745V7.2858L17.3333 4.5918L8.63867 9.59313V14.9818L13.3053 17.6765L22 12.6745Z" fill="#FFE8B6"/>
<path d="M22 12.6738V7.28516L13.3053 12.2872L8.63867 9.59249V14.9812L13.3053 17.6758L22 12.6738Z" fill="#FFD983"/>
<path d="M21.9998 12.6738V7.28516L13.3052 12.2872V17.6758L21.9998 12.6738Z" fill="#FFCC4D"/>
<path d="M11.4547 18.8674V17.526L6.788 14.832L2 17.5494V18.8907L6.66667 21.5847L11.4547 18.8674Z" fill="#FFE8B6"/>
<path d="M11.4547 18.8667V17.5254L6.788 20.2314L2 17.5487V18.8901L6.66667 21.5841L11.4547 18.8667Z" fill="#FFD983"/>
<path d="M11.4545 18.8667V17.5254L6.78784 20.2314L6.6665 21.5841L11.4545 18.8667Z" fill="#FFCC4D"/>
</svg>
