<svg width="148" height="210" viewBox="0 0 148 210" fill="none" xmlns="http://www.w3.org/2000/svg">
<path d="M54.413 154.202L67.8709 156.037L66.6474 93.6418C73.4987 91.6843 75.8912 84.8058 76.231 81.6113V50.0058C76.231 48.3745 74.5998 47.6948 73.7842 47.5589C71.011 47.3958 70.1818 49.1222 70.1138 50.0058L69.9099 76.5136C69.5837 77.9818 67.8709 78.4847 67.0552 78.5527C64.7715 78.5527 64.0646 77.1933 63.9966 76.5136V50.0058C63.5073 48.2114 61.8896 47.6269 61.1419 47.5589C58.5319 47.3958 57.8794 49.1222 57.8794 50.0058V76.5136C57.39 78.308 55.9083 78.6207 55.2286 78.5527C52.9449 78.879 52.238 77.3293 52.17 76.5136V50.6175C51.7622 48.5784 49.5959 47.8903 48.7036 47.7628C45.8489 47.355 45.9169 48.6464 45.8489 49.394V80.3879C45.8489 89.686 52.238 93.0981 55.4325 93.6418L54.413 154.202Z" fill="black"/>
<path d="M101.312 48.1706V151.551L89.0772 155.018L90.3006 112.605C85.4068 112.605 83.7756 110.838 83.5717 109.954L87.8537 57.3464C90.79 49.3532 98.0491 47.8987 101.312 48.1706Z" fill="black"/>
<path d="M112.323 128.677C124.218 120.339 133.07 108.351 137.536 94.5291C142.002 80.7072 141.839 65.8059 137.071 52.0851C132.304 38.3643 123.192 26.5724 111.117 18.4977C99.0431 10.4229 84.665 6.50589 70.1635 7.34051C55.662 8.17514 41.8282 13.7159 30.7601 23.1226C19.6919 32.5293 11.9931 45.2887 8.83129 59.4659C5.66945 73.6431 7.21702 88.4647 13.2393 101.683C19.2616 114.901 29.4301 125.795 42.2027 132.712" stroke="black" stroke-opacity="0.1" stroke-width="13.05" stroke-linecap="round"/>
<path d="M71.5974 7.20282C57.096 8.03744 43.2622 13.5782 32.194 22.9849C21.1258 32.3916 13.4271 45.151 10.2652 59.3282C7.10341 73.5054 8.65098 88.327 14.6733 101.545C20.6956 114.763 30.864 125.657 43.6367 132.575" stroke="black" stroke-width="13.05" stroke-linecap="round"/>
<rect x="72.5607" y="19.0119" width="4.48595" height="8.15627" rx="2.24297" fill="black" fill-opacity="0.1"/>
<rect x="100.7" y="24.7213" width="4.48595" height="8.15627" rx="2.24297" transform="rotate(30 100.7 24.7213)" fill="black" fill-opacity="0.1"/>
<rect x="121.629" y="44.2963" width="4.48595" height="8.15627" rx="2.24297" transform="rotate(60 121.629 44.2963)" fill="black" fill-opacity="0.1"/>
<rect x="129.655" y="72.0276" width="4.48595" height="8.15627" rx="2.24297" transform="rotate(90 129.655 72.0276)" fill="black" fill-opacity="0.1"/>
<rect x="123.705" y="100.059" width="4.48595" height="8.15627" rx="2.24297" transform="rotate(120 123.705 100.059)" fill="black" fill-opacity="0.1"/>
<path d="M13.7112 194.304C14.8157 194.793 15.8565 195.175 16.8336 195.451C17.8107 195.727 18.8728 195.865 20.0198 195.865C21.1032 195.865 22.0059 195.568 22.7281 194.973C23.4716 194.378 23.8433 193.571 23.8433 192.552C23.8433 191.681 23.5353 190.927 22.9193 190.289C22.3245 189.652 21.4855 189.079 20.4022 188.569L17.1523 187.039C15.8778 186.445 14.8901 185.712 14.1891 184.841C13.5094 183.97 13.1695 182.844 13.1695 181.464C13.1695 180.189 13.52 179.085 14.2209 178.15C14.9432 177.215 15.8672 176.514 16.9929 176.047C18.14 175.558 19.3507 175.314 20.6252 175.314C21.8785 175.314 22.9299 175.431 23.7796 175.665C24.6505 175.877 25.6382 176.206 26.7427 176.652L25.8825 178.915C23.8221 178.15 22.0484 177.768 20.5615 177.768C17.9276 177.768 16.6106 178.777 16.6106 180.794C16.6106 181.538 16.823 182.165 17.2478 182.674C17.6939 183.163 18.3843 183.63 19.3189 184.076L23.1423 185.956C25.9674 187.358 27.38 189.291 27.38 191.755C27.38 193.284 27.0083 194.548 26.2648 195.547C25.5426 196.545 24.6186 197.267 23.4928 197.713C22.367 198.159 21.1881 198.382 19.9561 198.382C18.6816 198.382 17.4496 198.234 16.2601 197.936C15.0918 197.639 13.9023 197.225 12.6916 196.694L13.7112 194.304ZM37.7949 196.184C39.0906 196.184 40.3651 195.993 41.6183 195.61L42.2556 197.554C41.7458 197.766 41.0873 197.958 40.2801 198.127C39.4942 198.297 38.6658 198.382 37.7949 198.382C35.2034 198.382 33.2386 197.66 31.9004 196.216C30.5622 194.771 29.8931 192.626 29.8931 189.78C29.8931 186.933 30.5622 184.788 31.9004 183.343C33.2386 181.899 35.2034 181.177 37.7949 181.177C38.6658 181.177 39.4942 181.262 40.2801 181.432C41.0873 181.602 41.7458 181.793 42.2556 182.005L41.6183 183.885C40.4926 183.524 39.2181 183.343 37.7949 183.343C36.2655 183.343 35.1291 183.917 34.3857 185.064C33.6422 186.211 33.2705 187.783 33.2705 189.78C33.2705 191.776 33.6422 193.348 34.3857 194.495C35.1291 195.621 36.2655 196.184 37.7949 196.184ZM57.5778 194.081C57.5778 194.803 57.6521 195.324 57.8008 195.642C57.9495 195.94 58.2787 196.163 58.7885 196.311L58.3424 198.223C58.3212 198.244 58.2362 198.276 58.0875 198.319C57.9601 198.361 57.7795 198.382 57.5459 198.382C56.9299 198.361 56.4626 198.255 56.144 198.064C55.8253 197.894 55.5173 197.543 55.22 197.012L54.742 196.152H54.2322C53.6587 196.917 53.0002 197.48 52.2568 197.841C51.5133 198.202 50.6106 198.382 49.5485 198.382C47.9129 198.382 46.6172 197.958 45.6613 197.108C44.7055 196.237 44.2275 194.994 44.2275 193.38C44.2275 191.723 44.7586 190.491 45.8206 189.684C46.8827 188.877 48.5395 188.388 50.7911 188.218L54.4234 187.932V186.88C54.4234 185.606 54.1473 184.703 53.595 184.172C53.0427 183.62 52.0231 183.343 50.5362 183.343C49.4529 183.343 47.9554 183.577 46.0437 184.044L45.4702 182.165C46.1924 181.888 47.1058 181.655 48.2103 181.464C49.3149 181.272 50.2707 181.177 51.0779 181.177C53.2233 181.177 54.8376 181.612 55.9209 182.483C57.0255 183.333 57.5778 184.703 57.5778 186.593V194.081ZM51.3646 190.13C48.7732 190.321 47.4775 191.351 47.4775 193.221C47.4775 195.217 48.4758 196.216 50.4725 196.216C51.5983 196.216 52.5329 195.95 53.2764 195.419C54.0411 194.867 54.4234 193.975 54.4234 192.743V189.907L51.3646 190.13ZM63.4548 181.304C63.7309 181.304 63.9752 181.368 64.1876 181.495C64.4213 181.602 64.6231 181.814 64.793 182.133L65.2391 182.961H65.7489C66.4074 182.26 67.0446 181.793 67.6606 181.559C68.2766 181.304 69.1156 181.177 70.1777 181.177C72.4081 181.177 74.033 181.708 75.0526 182.77C76.0722 183.832 76.582 185.521 76.582 187.836V198H73.3958V187.868C73.3958 186.423 73.1515 185.308 72.663 184.522C72.1744 183.736 71.2292 183.343 69.8272 183.343C68.9351 183.343 68.1704 183.45 67.5332 183.662C66.9172 183.853 66.3436 184.151 65.8126 184.554V198H62.6264V184.777L61.8936 181.304H63.4548Z" fill="black" fill-opacity="0.4"/>
<path d="M88.261 185.538C91.1651 185.538 92.6172 184.169 92.6172 181.431C92.6172 179.471 91.8756 178.216 90.3924 177.666C89.8842 177.479 89.4486 177.386 89.0856 177.386H88.4322C88.37 177.386 88.3129 177.391 88.261 177.402V175.893H90.937C93.4054 175.893 95.2257 176.354 96.3977 177.277C97.5801 178.19 98.1713 179.492 98.1713 181.182C98.1713 182.624 97.6319 183.78 96.5533 184.652C95.5991 185.419 94.313 185.907 92.695 186.114V186.176C94.6345 186.238 96.211 186.726 97.4245 187.639C98.7625 188.655 99.4314 190.05 99.4314 191.824C99.4314 193.628 98.7365 195.08 97.3467 196.18C95.8221 197.393 93.644 198 90.8125 198H88.261V196.289C88.4374 196.33 88.707 196.351 89.07 196.351C92.1608 196.351 93.7062 194.842 93.7062 191.824C93.7062 188.805 91.8912 187.296 88.261 187.296V185.538ZM86.8764 198H79.4865V196.849C79.7666 196.735 80.0362 196.652 80.2955 196.6C80.5652 196.538 80.8089 196.455 81.0267 196.351C81.4831 196.123 81.7113 195.687 81.7113 195.044V178.88C81.7113 178.226 81.4831 177.785 81.0267 177.557C80.8089 177.454 80.5652 177.376 80.2955 177.324C80.0362 177.262 79.7666 177.173 79.4865 177.059V175.893H86.8764V198ZM107.149 195.386C107.149 195.926 107.398 196.294 107.895 196.491C108.103 196.574 108.326 196.646 108.564 196.709C108.803 196.771 109.026 196.869 109.233 197.004V198H100.474V197.004C100.671 196.869 100.889 196.771 101.128 196.709C101.366 196.646 101.589 196.574 101.797 196.491C102.284 196.294 102.528 195.926 102.528 195.386V185.072C102.528 184.512 102.284 184.143 101.797 183.967C101.589 183.884 101.366 183.817 101.128 183.765C100.889 183.703 100.671 183.599 100.474 183.454V182.365H107.149V195.386ZM104.566 180.513C104.172 180.513 103.814 180.441 103.493 180.295C103.171 180.15 102.896 179.953 102.668 179.704C102.191 179.186 101.952 178.553 101.952 177.806C101.952 177.08 102.191 176.447 102.668 175.908C103.166 175.358 103.799 175.084 104.566 175.084C105.344 175.084 105.982 175.358 106.48 175.908C106.957 176.447 107.195 177.08 107.195 177.806C107.195 178.553 106.957 179.186 106.48 179.704C105.982 180.244 105.344 180.513 104.566 180.513ZM116.391 177.075V198.233H116.266C114.741 198.233 113.606 197.943 112.859 197.362C112.123 196.781 111.754 195.837 111.754 194.531V184.076H109.685V182.831C109.841 182.665 110.038 182.541 110.276 182.458C110.525 182.375 110.774 182.287 111.023 182.193C111.635 181.965 112.024 181.592 112.19 181.073C112.74 179.559 113.17 178.589 113.481 178.164C113.792 177.728 114.067 177.376 114.306 177.106L116.391 177.075ZM117.775 196.366C118.615 196.366 119.206 196.097 119.549 195.557C119.694 195.319 119.808 195.049 119.891 194.748C119.974 194.437 120.067 194.126 120.171 193.815L121.431 194.313C121.172 195.516 120.85 196.346 120.467 196.802C120.083 197.248 119.684 197.575 119.269 197.782C118.864 197.99 118.366 198.14 117.775 198.233V196.366ZM117.775 182.365H120.576V184.076H117.775V182.365ZM130.253 196.366C132.338 196.263 133.738 195.111 134.454 192.913L135.885 193.566C135.107 196.418 133.23 197.974 130.253 198.233V196.366ZM129.786 182.053C131.923 182.209 133.525 183.059 134.594 184.605C135.548 185.974 136.025 187.805 136.025 190.097H128.013V188.51H131.233C131.233 187.182 131.129 186.135 130.922 185.367C130.725 184.589 130.346 184.107 129.786 183.92V182.053ZM128.868 198.233C126.618 198.057 124.803 197.181 123.423 195.604C122.137 194.142 121.494 192.342 121.494 190.206C121.494 187.965 122.142 186.083 123.439 184.558C124.725 183.034 126.379 182.199 128.402 182.053V183.92C127.717 184.159 127.235 184.802 126.955 185.849C126.685 186.897 126.55 188.079 126.55 189.397C126.55 190.703 126.581 191.684 126.644 192.337C126.716 192.98 126.841 193.561 127.017 194.079C127.38 195.169 127.997 195.931 128.868 196.366V198.233Z" fill="black"/>
</svg>
