<svg width="20" height="20" viewBox="0 0 20 20" fill="none" xmlns="http://www.w3.org/2000/svg">
<path d="M0.713817 4.29592e-05C0.3219 0.597804 0.225275 1.33208 0.376704 2.18004C0.557231 3.19126 1.10354 4.33082 1.89314 5.40375C3.47241 7.54967 6.02163 9.40467 8.28953 9.68591L8.44805 9.70611L8.55014 9.82836L16.8955 19.9024C17.7273 20.1012 18.2643 19.9774 18.5436 19.7009C18.825 19.4222 18.9548 18.884 18.7463 18.0299L0.713903 0L0.713817 4.29592e-05ZM16.8351 0.0994191L12.1715 4.76305C11.6557 5.27876 11.6512 5.84622 11.9175 6.46624L12.0277 6.72285L11.8262 6.91627L10.26 8.40988L11.5321 9.68187L13.019 8.11162L13.2124 7.90746L13.469 8.01895C14.1208 8.29984 14.7389 8.28833 15.2178 7.80941L19.8815 3.14578L19.2757 2.53998L16.2427 5.57164L15.6759 5.00354L18.7074 1.97196L18.0614 1.32572L15.0298 4.35738L14.4616 3.78923L17.4932 0.757657L16.8351 0.0994191ZM8.06516 10.504L0.0958971 18.1079C-0.100749 18.9224 0.0252334 19.4312 0.290695 19.6941C0.556243 19.9571 1.06989 20.0779 1.87435 19.8835L9.31983 12.0191L8.06516 10.504Z" fill="black" fill-opacity="0.5"/>
</svg>
