<svg width="20" height="20" viewBox="0 0 20 20" fill="none" xmlns="http://www.w3.org/2000/svg">
<path d="M16.6772 12.531C17.1703 12.0391 17.4791 11.75 18.1526 11.75C18.7467 11.75 19.2865 11.9874 19.7349 12.2973C18.6968 16.7128 14.7323 20 10 20C5.46768 20 1.6396 16.9848 0.412248 12.8509C1.23745 13.3036 2.30084 13.75 3.33179 13.75C4.14547 13.75 4.96656 13.4733 5.65714 13.1522C6.18936 12.9048 6.67974 12.6139 7.07926 12.3522C7.76665 13.2047 8.81964 13.75 10 13.75C10.7517 13.75 11.4518 13.5288 12.0387 13.1479C12.6126 13.4845 13.3239 13.75 14.1426 13.75C15.4558 13.75 16.1486 13.0585 16.6561 12.5521L16.6772 12.531Z" fill="black" fill-opacity="0.5"/>
<path d="M7.75 10C7.75 8.75736 8.75736 7.75 10 7.75C11.2426 7.75 12.25 8.75736 12.25 10C12.25 11.2426 11.2426 12.25 10 12.25C8.75736 12.25 7.75 11.2426 7.75 10Z" fill="black" fill-opacity="0.5"/>
<path fill-rule="evenodd" clip-rule="evenodd" d="M10 6.25C7.92893 6.25 6.25 7.92893 6.25 10C6.25 10.3502 6.298 10.6892 6.38778 11.0107C6.00909 11.2659 5.53309 11.5557 5.02472 11.7921C4.42077 12.0729 3.83063 12.25 3.33179 12.25C2.57197 12.25 1.63776 11.8433 0.819066 11.3557C0.519151 11.177 0.251491 10.9978 0.0351409 10.8443C0.0118698 10.566 0 10.2844 0 10C0 6.99808 1.32274 4.30511 3.41717 2.47212C3.43347 2.4922 3.45097 2.51164 3.46967 2.53033L4.46967 3.53033C4.76256 3.82322 5.23744 3.82322 5.53033 3.53033C5.82322 3.23744 5.82322 2.76256 5.53033 2.46967L4.62594 1.56528C6.17806 0.57431 8.02196 0 10 0C13.0019 0 15.6949 1.32274 17.5279 3.41716C17.5078 3.43347 17.4884 3.45097 17.4697 3.46967L16.4697 4.46967C16.1768 4.76256 16.1768 5.23744 16.4697 5.53033C16.7626 5.82322 17.2374 5.82322 17.5303 5.53033L18.4347 4.62594C19.4257 6.17806 20 8.02196 20 10C20 10.2351 19.9919 10.4683 19.9759 10.6993C19.4528 10.4364 18.8399 10.25 18.1526 10.25C16.8394 10.25 16.1465 10.9415 15.639 11.4479L15.6179 11.469C15.1248 11.9609 14.816 12.25 14.1426 12.25C13.7922 12.25 13.4596 12.168 13.1508 12.0343C13.5299 11.4483 13.75 10.7498 13.75 10C13.75 7.92893 12.0711 6.25 10 6.25ZM14.45 2.4C14.7814 2.64853 14.8485 3.11863 14.6 3.45L13.1 5.45C12.8515 5.78137 12.3814 5.84853 12.05 5.6C11.7186 5.35147 11.6515 4.88137 11.9 4.55L13.4 2.55C13.6485 2.21863 14.1186 2.15147 14.45 2.4ZM8.46967 1.46967C8.17678 1.76256 8.17678 2.23744 8.46967 2.53033L9.46967 3.53033C9.76256 3.82322 10.2374 3.82322 10.5303 3.53033C10.8232 3.23744 10.8232 2.76256 10.5303 2.46967L9.53033 1.46967C9.23744 1.17678 8.76256 1.17678 8.46967 1.46967ZM6.40953 5.56014C6.51674 5.96024 6.92799 6.19768 7.32809 6.09047L8.69411 5.72444C9.09421 5.61724 9.33165 5.20599 9.22444 4.80589C9.11724 4.40579 8.70599 4.16835 8.30589 4.27556L6.93986 4.64158C6.53976 4.74879 6.30232 5.16004 6.40953 5.56014ZM14.7515 9.13833C15.1652 9.11889 15.4849 8.76771 15.4654 8.35395L15.399 6.94129C15.3796 6.52754 15.0284 6.20788 14.6146 6.22733C14.2009 6.24678 13.8812 6.59796 13.9007 7.01171L13.9671 8.42437C13.9865 8.83813 14.3377 9.15778 14.7515 9.13833ZM16.9413 9.55391C17.2151 9.86476 17.689 9.89483 17.9998 9.62107L19.1734 8.64787C19.4843 8.37411 19.5143 7.90019 19.2406 7.58934C18.9668 7.27849 18.4929 7.24842 18.182 7.52218L17.0085 8.49538C16.6976 8.76914 16.6675 9.24306 16.9413 9.55391ZM3.89686 5.17364C3.51977 5.34505 3.35304 5.78969 3.52445 6.16677L4.10968 7.45422C4.28108 7.8313 4.72572 7.99803 5.10281 7.82662C5.47989 7.65522 5.64662 7.21058 5.47522 6.83349L4.88999 5.54605C4.71858 5.16896 4.27394 5.00223 3.89686 5.17364ZM4.94308 8.89494C5.27734 9.13957 5.34999 9.60885 5.10536 9.94311L4.27012 11.0843C4.02549 11.4186 3.55621 11.4912 3.22195 11.2466C2.88769 11.002 2.81504 10.5327 3.05967 10.1984L3.89491 9.05721C4.13954 8.72296 4.60883 8.6503 4.94308 8.89494ZM1.56234 6.18884C1.14877 6.21188 0.832177 6.56582 0.855217 6.97939L0.93388 8.39142C0.95692 8.80499 1.31086 9.12158 1.72444 9.09854C2.13801 9.0755 2.4546 8.72155 2.43156 8.30798L2.35289 6.89596C2.32985 6.48239 1.97591 6.1658 1.56234 6.18884Z" fill="black" fill-opacity="0.5"/>
</svg>
