<svg width="70" height="145" viewBox="0 0 70 145" fill="none" xmlns="http://www.w3.org/2000/svg">
<path d="M76.6178 1C51.6614 26.4555 1.59895 83.8052 1 109.56C1 115.3 2.34764 129.326 7.73822 139.508" stroke="url(#paint0_linear_6_671)" stroke-opacity="0.4" stroke-width="1.49738"/>
<path d="M82.6073 13.7278C60.369 34.9178 15.7589 82.6575 15.2251 104.097C15.2251 108.875 16.426 120.55 21.2295 129.026" stroke="url(#paint1_linear_6_671)" stroke-opacity="0.4" stroke-width="1.49738"/>
<path d="M88.5969 21.2146C68.3353 41.3038 27.6905 86.5636 27.2042 106.889C27.2042 111.419 28.2983 122.488 32.6748 130.524" stroke="url(#paint2_linear_6_671)" stroke-opacity="0.4" stroke-width="1.49738"/>
<path d="M91.5916 27.2042C74.2951 47.2934 39.5984 92.5532 39.1833 112.879C39.1833 117.409 40.1173 128.477 43.8533 136.513" stroke="url(#paint3_linear_6_671)" stroke-opacity="0.4" stroke-width="1.49738"/>
<path d="M102.073 31.6963C84.7768 51.7855 50.08 97.0453 49.6649 117.371C49.6649 121.901 50.5989 132.97 54.335 141.005" stroke="url(#paint4_linear_6_671)" stroke-opacity="0.4" stroke-width="1.49738"/>
<path d="M114.052 34.6912C96.7559 54.7804 62.0591 100.04 61.644 120.366C61.644 124.896 62.578 135.964 66.314 144" stroke="url(#paint5_linear_6_671)" stroke-opacity="0.4" stroke-width="1.49738"/>
<defs>
<linearGradient id="paint0_linear_6_671" x1="38.8089" y1="1" x2="38.8089" y2="139.508" gradientUnits="userSpaceOnUse">
<stop/>
<stop offset="1" stop-color="white" stop-opacity="0"/>
</linearGradient>
<linearGradient id="paint1_linear_6_671" x1="48.9162" y1="13.7278" x2="48.9162" y2="129.026" gradientUnits="userSpaceOnUse">
<stop/>
<stop offset="1" stop-color="white" stop-opacity="0"/>
</linearGradient>
<linearGradient id="paint2_linear_6_671" x1="57.9005" y1="21.2146" x2="57.9005" y2="130.523" gradientUnits="userSpaceOnUse">
<stop/>
<stop offset="1" stop-color="white" stop-opacity="0"/>
</linearGradient>
<linearGradient id="paint3_linear_6_671" x1="65.3874" y1="27.2042" x2="65.3874" y2="136.513" gradientUnits="userSpaceOnUse">
<stop/>
<stop offset="1" stop-color="white" stop-opacity="0"/>
</linearGradient>
<linearGradient id="paint4_linear_6_671" x1="75.8691" y1="31.6963" x2="75.8691" y2="141.005" gradientUnits="userSpaceOnUse">
<stop/>
<stop offset="1" stop-color="white" stop-opacity="0"/>
</linearGradient>
<linearGradient id="paint5_linear_6_671" x1="87.8482" y1="34.6912" x2="87.8482" y2="144" gradientUnits="userSpaceOnUse">
<stop/>
<stop offset="1" stop-color="white" stop-opacity="0"/>
</linearGradient>
</defs>
</svg>
