<svg width="129" height="42" viewBox="0 0 129 42" fill="none" xmlns="http://www.w3.org/2000/svg">
<path d="M14.8895 41.0214L18.4123 41.5018L18.0921 25.1688C19.8855 24.6564 20.5118 22.8558 20.6007 22.0196V13.7464C20.6007 13.3194 20.1737 13.1414 19.9602 13.1059C19.2343 13.0632 19.0172 13.5151 18.9994 13.7464L18.9461 20.6852C18.8607 21.0695 18.4123 21.2012 18.1988 21.219C17.601 21.219 17.416 20.8631 17.3982 20.6852V13.7464C17.2701 13.2767 16.8466 13.1236 16.6509 13.1059C15.9677 13.0632 15.7969 13.5151 15.7969 13.7464V20.6852C15.6688 21.1549 15.2809 21.2368 15.103 21.219C14.5052 21.3044 14.3202 20.8987 14.3024 20.6852V13.9065C14.1956 13.3727 13.6286 13.1926 13.395 13.1592C12.6477 13.0525 12.6655 13.3905 12.6477 13.5862V21.6994C12.6477 24.1333 14.3202 25.0264 15.1564 25.1688L14.8895 41.0214Z" fill="black"/>
<path d="M27.1659 13.2661V40.3276L23.9634 41.235L24.2836 30.1328C23.0026 30.1328 22.5756 29.6702 22.5222 29.4389L23.6431 15.668C24.4118 13.5756 26.3119 13.1949 27.1659 13.2661Z" fill="black"/>
<path d="M30.0485 34.3397C33.1621 32.1573 35.4791 29.0191 36.6482 25.401C37.8172 21.7829 37.7745 17.8823 36.5266 14.2906C35.2786 10.699 32.8934 7.61227 29.7328 5.49859C26.5722 3.3849 22.8085 2.35955 19.0125 2.57803C15.2165 2.79651 11.5953 4.24689 8.69799 6.70924C5.80072 9.17159 3.78545 12.5116 2.95779 16.2227C2.13013 19.9338 2.53523 23.8136 4.11166 27.2736C5.68809 30.7337 8.34985 33.5853 11.6933 35.3961" stroke="black" stroke-opacity="0.1" stroke-width="3.41605" stroke-linecap="round"/>
<path d="M19.3878 2.54196C15.5918 2.76043 11.9706 4.21082 9.07334 6.67317C6.17607 9.13551 4.1608 12.4755 3.33314 16.1866C2.50548 19.8977 2.91058 23.7775 4.48701 27.2376C6.06344 30.6976 8.7252 33.5493 12.0686 35.36" stroke="black" stroke-width="3.41605" stroke-linecap="round"/>
<rect x="19.64" y="5.63318" width="1.17427" height="2.13503" rx="0.587134" fill="black" fill-opacity="0.1"/>
<rect x="27.0058" y="7.12781" width="1.17427" height="2.13503" rx="0.587134" transform="rotate(30 27.0058 7.12781)" fill="black" fill-opacity="0.1"/>
<rect x="32.4844" y="12.2518" width="1.17427" height="2.13503" rx="0.587134" transform="rotate(60 32.4844 12.2518)" fill="black" fill-opacity="0.1"/>
<rect x="34.5852" y="19.511" width="1.17427" height="2.13503" rx="0.587134" transform="rotate(90 34.5852 19.511)" fill="black" fill-opacity="0.1"/>
<rect x="33.0277" y="26.8486" width="1.17427" height="2.13503" rx="0.587134" transform="rotate(120 33.0277 26.8486)" fill="black" fill-opacity="0.1"/>
<path d="M48.0496 24.7952C48.7505 25.1053 49.4111 25.3479 50.0311 25.5231C50.6512 25.6984 51.3252 25.786 52.0531 25.786C52.7406 25.786 53.3135 25.5973 53.7718 25.2198C54.2436 24.8424 54.4795 24.3302 54.4795 23.6831C54.4795 23.1304 54.2841 22.6519 53.8932 22.2475C53.5157 21.8431 52.9833 21.4791 52.2958 21.1556L50.2333 20.1851C49.4245 19.8076 48.7977 19.3426 48.3529 18.7899C47.9215 18.2372 47.7058 17.5228 47.7058 16.6466C47.7058 15.8378 47.9283 15.1368 48.3731 14.5437C48.8314 13.9506 49.4178 13.5057 50.1322 13.2092C50.8602 12.8991 51.6285 12.7441 52.4373 12.7441C53.2326 12.7441 53.8999 12.8182 54.4391 12.9665C54.9918 13.1013 55.6186 13.3103 56.3196 13.5933L55.7736 15.029C54.4661 14.5437 53.3405 14.301 52.3969 14.301C50.7254 14.301 49.8896 14.9413 49.8896 16.2219C49.8896 16.6937 50.0244 17.0914 50.294 17.4149C50.5771 17.725 51.0152 18.0215 51.6083 18.3046L54.0347 19.4976C55.8275 20.3873 56.724 21.6139 56.724 23.1776C56.724 24.1482 56.4881 24.9502 56.0163 25.5838C55.5579 26.2174 54.9716 26.6757 54.2571 26.9588C53.5427 27.2418 52.7945 27.3834 52.0127 27.3834C51.2039 27.3834 50.4221 27.289 49.6672 27.1003C48.9258 26.9116 48.1709 26.6487 47.4025 26.3117L48.0496 24.7952ZM63.3334 25.9882C64.1557 25.9882 64.9645 25.8669 65.7598 25.6242L66.1642 26.8577C65.8407 26.9925 65.4228 27.1138 64.9105 27.2216C64.4118 27.3295 63.8861 27.3834 63.3334 27.3834C61.6888 27.3834 60.4419 26.9251 59.5927 26.0084C58.7434 25.0918 58.3188 23.7303 58.3188 21.924C58.3188 20.1177 58.7434 18.7562 59.5927 17.8395C60.4419 16.9229 61.6888 16.4646 63.3334 16.4646C63.8861 16.4646 64.4118 16.5185 64.9105 16.6263C65.4228 16.7342 65.8407 16.8555 66.1642 16.9903L65.7598 18.1833C65.0453 17.9541 64.2365 17.8395 63.3334 17.8395C62.3628 17.8395 61.6416 18.2035 61.1698 18.9314C60.698 19.6593 60.4621 20.6569 60.4621 21.924C60.4621 23.1911 60.698 24.1886 61.1698 24.9165C61.6416 25.631 62.3628 25.9882 63.3334 25.9882ZM75.8878 24.6537C75.8878 25.112 75.935 25.4423 76.0293 25.6445C76.1237 25.8332 76.3326 25.9747 76.6561 26.0691L76.3731 27.2823C76.3596 27.2958 76.3057 27.316 76.2113 27.3429C76.1304 27.3699 76.0158 27.3834 75.8676 27.3834C75.4766 27.3699 75.1801 27.3025 74.9779 27.1812C74.7757 27.0733 74.5802 26.8509 74.3915 26.5139L74.0882 25.968H73.7647C73.4007 26.4533 72.9828 26.8105 72.511 27.0396C72.0392 27.2688 71.4663 27.3834 70.7923 27.3834C69.7544 27.3834 68.9321 27.1138 68.3255 26.5746C67.7189 26.0219 67.4156 25.2333 67.4156 24.2088C67.4156 23.1574 67.7526 22.3756 68.4266 21.8633C69.1006 21.3511 70.152 21.041 71.5809 20.9332L73.886 20.7512V20.084C73.886 19.2752 73.7108 18.7023 73.3603 18.3653C73.0098 18.0148 72.3628 17.8395 71.4192 17.8395C70.7317 17.8395 69.7813 17.9878 68.5681 18.2844L68.2042 17.0914C68.6625 16.9162 69.2421 16.7679 69.9431 16.6466C70.6441 16.5252 71.2507 16.4646 71.7629 16.4646C73.1244 16.4646 74.1489 16.7409 74.8363 17.2936C75.5373 17.8328 75.8878 18.7023 75.8878 19.902V24.6537ZM71.9449 22.1464C70.3003 22.2677 69.478 22.9215 69.478 24.1077C69.478 25.3749 70.1116 26.0084 71.3787 26.0084C72.0932 26.0084 72.6863 25.8399 73.1581 25.5029C73.6434 25.1524 73.886 24.5863 73.886 23.8044V22.0049L71.9449 22.1464ZM79.6174 16.5455C79.7927 16.5455 79.9477 16.5859 80.0825 16.6668C80.2308 16.7342 80.3588 16.869 80.4667 17.0712L80.7497 17.5969H81.0733C81.4911 17.1521 81.8955 16.8555 82.2865 16.7072C82.6774 16.5455 83.2098 16.4646 83.8838 16.4646C85.2992 16.4646 86.3305 16.8016 86.9775 17.4756C87.6245 18.1496 87.9481 19.2212 87.9481 20.6906V27.1407H85.9261V20.7108C85.9261 19.7941 85.771 19.0864 85.461 18.5877C85.151 18.0889 84.5511 17.8395 83.6614 17.8395C83.0953 17.8395 82.61 17.9069 82.2056 18.0417C81.8147 18.1631 81.4507 18.3518 81.1137 18.6079V27.1407H79.0917V18.7494L78.6266 16.5455H79.6174Z" fill="black" fill-opacity="0.4"/>
<path d="M95.3597 19.2324C97.2027 19.2324 98.1242 18.3636 98.1242 16.626C98.1242 15.3819 97.6536 14.5855 96.7123 14.2367C96.3898 14.1182 96.1134 14.059 95.883 14.059H95.4683C95.4288 14.059 95.3926 14.0623 95.3597 14.0688V13.1111H97.0579C98.6244 13.1111 99.7796 13.404 100.523 13.9898C101.274 14.5691 101.649 15.3951 101.649 16.468C101.649 17.3829 101.307 18.1168 100.622 18.6697C100.017 19.1567 99.2003 19.4661 98.1735 19.5977V19.6372C99.4044 19.6767 100.405 19.9861 101.175 20.5653C102.024 21.2103 102.449 22.0956 102.449 23.2211C102.449 24.3664 102.008 25.2879 101.126 25.9856C100.158 26.7557 98.7758 27.1407 96.9789 27.1407H95.3597V26.0547C95.4716 26.081 95.6427 26.0942 95.8731 26.0942C97.8346 26.0942 98.8153 25.1365 98.8153 23.2211C98.8153 21.3058 97.6634 20.3481 95.3597 20.3481V19.2324ZM94.481 27.1407H89.7913V26.4101C89.969 26.3377 90.1402 26.2851 90.3047 26.2522C90.4759 26.2127 90.6305 26.16 90.7688 26.0942C91.0584 25.9494 91.2032 25.673 91.2032 25.2649V15.0068C91.2032 14.5921 91.0584 14.3124 90.7688 14.1676C90.6305 14.1017 90.4759 14.0524 90.3047 14.0195C90.1402 13.98 89.969 13.924 89.7913 13.8516V13.1111H94.481V27.1407ZM107.346 25.4821C107.346 25.8243 107.504 26.058 107.82 26.1831C107.952 26.2357 108.093 26.2818 108.244 26.3213C108.396 26.3608 108.537 26.4233 108.669 26.5089V27.1407H103.11V26.5089C103.236 26.4233 103.374 26.3608 103.525 26.3213C103.677 26.2818 103.818 26.2357 103.95 26.1831C104.259 26.058 104.414 25.8243 104.414 25.4821V18.9362C104.414 18.5808 104.259 18.3472 103.95 18.2353C103.818 18.1826 103.677 18.1398 103.525 18.1069C103.374 18.0674 103.236 18.0016 103.11 17.9094V17.2183H107.346V25.4821ZM105.707 16.0434C105.457 16.0434 105.23 15.9974 105.026 15.9052C104.822 15.8131 104.647 15.688 104.503 15.53C104.2 15.2009 104.048 14.7994 104.048 14.3255C104.048 13.8648 104.2 13.4633 104.503 13.121C104.818 12.7722 105.22 12.5977 105.707 12.5977C106.201 12.5977 106.606 12.7722 106.921 13.121C107.224 13.4633 107.376 13.8648 107.376 14.3255C107.376 14.7994 107.224 15.2009 106.921 15.53C106.606 15.8723 106.201 16.0434 105.707 16.0434ZM113.211 13.8615V27.2888H113.132C112.164 27.2888 111.444 27.1045 110.97 26.736C110.502 26.3674 110.269 25.7684 110.269 24.9391V18.3044H108.956V17.5145C109.054 17.4092 109.179 17.3302 109.331 17.2776C109.489 17.2249 109.647 17.169 109.805 17.1097C110.193 16.9649 110.44 16.728 110.545 16.3989C110.894 15.4379 111.167 14.8225 111.365 14.5526C111.562 14.2762 111.737 14.0524 111.888 13.8812L113.211 13.8615ZM114.09 26.1041C114.623 26.1041 114.998 25.9329 115.215 25.5907C115.307 25.4393 115.38 25.2682 115.432 25.0773C115.485 24.8798 115.544 24.6824 115.61 24.4849L116.41 24.8008C116.245 25.5644 116.041 26.0909 115.798 26.3805C115.554 26.6635 115.301 26.8709 115.037 27.0025C114.781 27.1342 114.465 27.2296 114.09 27.2888V26.1041ZM114.09 17.2183H115.867V18.3044H114.09V17.2183ZM122.008 26.1041C123.331 26.0383 124.22 25.3077 124.674 23.9123L125.582 24.3269C125.089 26.137 123.897 27.1243 122.008 27.2888V26.1041ZM121.712 17.0209C123.068 17.1196 124.085 17.6593 124.763 18.6401C125.368 19.5089 125.671 20.6706 125.671 22.1252H120.587V21.1182H122.63C122.63 20.2757 122.564 19.6109 122.433 19.1238C122.308 18.6302 122.067 18.3241 121.712 18.2056V17.0209ZM121.13 27.2888C119.701 27.1769 118.549 26.6208 117.674 25.6203C116.858 24.6922 116.45 23.5502 116.45 22.1944C116.45 20.7726 116.861 19.578 117.684 18.6104C118.5 17.6429 119.55 17.113 120.833 17.0209V18.2056C120.399 18.357 120.093 18.7651 119.915 19.4299C119.744 20.0947 119.658 20.845 119.658 21.681C119.658 22.5103 119.678 23.1323 119.718 23.547C119.764 23.955 119.843 24.3236 119.955 24.6527C120.185 25.3439 120.577 25.8276 121.13 26.1041V27.2888Z" fill="black"/>
</svg>
