<svg width="24" height="24" viewBox="0 0 24 24" fill="none" xmlns="http://www.w3.org/2000/svg">
<path opacity="0.8" d="M12 0.75C8.2875 0.75 5.25 2.175 5.25 3.9C5.25 3.9 5.25 14.4 8.1375 20.2875C8.4 21.975 10.0125 23.25 12 23.25C13.95 23.25 15.5625 21.975 15.8625 20.2875C18.75 14.4 18.75 3.9 18.75 3.9C18.75 2.175 15.7125 0.75 12 0.75Z" fill="#A1B8C7"/>
<path opacity="0.3" d="M12.0002 21.8636C10.3877 21.8636 8.9627 21.2261 8.1377 20.2886C8.4002 21.9761 10.0127 23.2511 12.0002 23.2511C13.9502 23.2511 15.5627 21.9761 15.8627 20.2886C15.0377 21.2261 13.6127 21.8636 12.0002 21.8636Z" fill="#555E63"/>
<path opacity="0.3" d="M12.0004 22.1252C10.7254 22.1252 9.60039 21.7877 8.96289 21.2627C9.18789 22.1627 10.4629 22.8752 12.0004 22.8752C13.5379 22.8752 14.8129 22.1627 15.0379 21.2627C14.4004 21.7877 13.2754 22.1252 12.0004 22.1252Z" fill="#555E63"/>
<path d="M12 5.3252C8.775 5.3252 6.375 6.4127 6.375 8.0252C6.375 8.0252 6.675 14.9627 8.6625 19.6502C9.375 20.5127 10.6125 21.0752 12 21.0752C13.3875 21.0752 14.625 20.5127 15.3375 19.6502C17.325 14.9627 17.625 8.0252 17.625 8.0252C17.625 6.4127 15.225 5.3252 12 5.3252Z" fill="black"/>
<path d="M12 5.32275C8.55 5.32275 6.375 6.44775 6.375 8.06025C6.375 9.67275 8.7375 11.0603 12 11.0603C15.2625 11.0603 17.625 9.67275 17.625 8.06025C17.625 6.44775 15.45 5.32275 12 5.32275Z" fill="#F2ECE3"/>
<path d="M14.175 11.2854C13.725 11.2854 13.35 11.0604 13.3125 10.7604C13.3125 10.5729 13.3875 10.4229 13.575 10.2729C13.725 10.1604 13.95 10.0854 14.175 10.0854H14.2875C14.7375 10.0854 15.1125 10.3104 15.15 10.6104C15.15 10.7979 15.075 10.9479 14.8875 11.0979C14.7375 11.2104 14.5125 11.2854 14.2875 11.2854C14.25 11.2479 14.2125 11.2854 14.175 11.2854Z" fill="#F2ECE3"/>
<path d="M15.6002 10.9861C15.4127 10.9861 15.2252 10.9111 15.1502 10.7611C15.0752 10.6486 15.0752 10.4986 15.1502 10.3486C15.2252 10.2361 15.3377 10.1236 15.4502 10.0486C15.5627 9.97363 15.7127 9.97363 15.8252 9.97363C16.0127 9.97363 16.2002 10.0486 16.2752 10.1986C16.4252 10.4236 16.2752 10.7611 15.9752 10.9111C15.8252 10.9486 15.7127 10.9861 15.6002 10.9861ZM12.5627 11.4361C12.2252 11.4361 12.0002 11.2486 11.9627 11.0236C11.9627 10.8736 12.0002 10.7611 12.1502 10.6486C12.2627 10.5736 12.4127 10.4986 12.5627 10.4986H12.6377C12.9752 10.4986 13.2002 10.6861 13.2377 10.9111C13.2752 11.1736 13.0127 11.3986 12.6752 11.4361H12.5627ZM11.3252 11.5486C11.1752 11.5486 11.0627 11.5111 10.9877 11.3986C10.9127 11.3236 10.8752 11.1736 10.9127 11.0611C10.9502 10.9486 10.9877 10.8361 11.1002 10.7986C11.2127 10.7236 11.3252 10.6861 11.4377 10.6861C11.5877 10.6861 11.7002 10.7236 11.7752 10.8361C11.9252 11.0236 11.8877 11.2861 11.6627 11.4361C11.5502 11.5111 11.4377 11.5486 11.3252 11.5486Z" fill="#F2ECE3"/>
<path d="M16.7627 9.6C16.6502 9.4875 16.4252 9.4875 16.2752 9.6C16.2002 9.675 16.1627 9.75 16.1252 9.825C16.0502 9.7875 15.9377 9.75 15.8252 9.75C15.6752 9.75 15.4877 9.7875 15.3377 9.8625C15.2252 9.9375 15.1502 10.0125 15.0752 10.0875C14.8877 9.9375 14.6252 9.825 14.2877 9.825H14.1377C13.8752 9.8625 13.6127 9.9375 13.4252 10.05C13.2752 10.1625 13.2002 10.275 13.1627 10.3875C13.0127 10.275 12.8252 10.2375 12.6377 10.2375H12.5252C12.3377 10.275 12.1502 10.35 12.0002 10.4625C11.9252 10.5 11.8877 10.575 11.8502 10.65C11.7377 10.5375 11.5877 10.4625 11.4002 10.4625C11.2502 10.4625 11.0627 10.5 10.9502 10.6125C10.8752 10.65 10.8377 10.725 10.8002 10.7625C10.8002 10.725 10.7627 10.725 10.7627 10.6875C10.6502 10.575 10.4252 10.575 10.2752 10.6875L10.2002 10.7625C10.2002 10.725 10.1627 10.6875 10.1627 10.65C10.0502 10.5375 9.86268 10.5375 9.71268 10.65C9.56268 10.7625 9.52518 10.95 9.63768 11.0625C9.75018 11.175 9.93768 11.175 10.0877 11.0625C10.1252 11.0625 10.1252 11.025 10.1252 11.025C10.1252 11.025 10.1627 11.1375 10.1627 11.175C10.2752 11.2875 10.5002 11.2875 10.6502 11.175C10.6502 11.325 10.6877 11.4375 10.8002 11.55C10.9127 11.7 11.1002 11.775 11.2877 11.775C11.4377 11.775 11.6252 11.7375 11.7377 11.625C11.8127 11.5875 11.8877 11.5125 11.9252 11.4375C12.0752 11.5875 12.3002 11.6625 12.5627 11.6625H12.6752C12.9752 11.625 13.2377 11.475 13.3502 11.25C13.5377 11.4 13.8377 11.5125 14.1377 11.5125H14.2877C14.5502 11.475 14.8127 11.4 15.0002 11.2875C15.0752 11.25 15.1127 11.175 15.1502 11.1375C15.2627 11.2125 15.4127 11.25 15.5627 11.25C15.7127 11.25 15.9002 11.2125 16.0502 11.1375C16.4627 10.95 16.6127 10.5375 16.4627 10.2375C16.5377 10.2375 16.6127 10.2 16.6502 10.1625C16.8377 9.9375 16.8752 9.75 16.7627 9.6ZM11.5127 11.2875C11.4377 11.325 11.4002 11.3625 11.3252 11.3625C11.2502 11.3625 11.2127 11.325 11.1377 11.2875C11.0627 11.2125 11.1002 11.0625 11.2127 10.95C11.2877 10.9125 11.3252 10.875 11.4002 10.875C11.4752 10.875 11.5127 10.9125 11.5877 10.95C11.6627 11.0625 11.6252 11.2125 11.5127 11.2875ZM12.6377 11.25H12.5627C12.3752 11.25 12.1877 11.1375 12.1877 11.025C12.1502 10.875 12.3377 10.725 12.5627 10.6875H12.6377C12.8252 10.6875 13.0127 10.8 13.0127 10.9125C13.0502 11.0625 12.8627 11.2125 12.6377 11.25ZM14.2877 11.0625H14.1752C13.8377 11.0625 13.5377 10.9125 13.5377 10.6875C13.5002 10.4625 13.8002 10.2375 14.2127 10.2H14.3252C14.6627 10.2 14.9627 10.35 14.9627 10.575C14.9627 10.8375 14.6627 11.025 14.2877 11.0625ZM15.8627 10.725C15.7877 10.7625 15.6752 10.8 15.6002 10.8C15.4877 10.8 15.3752 10.7625 15.3377 10.6875C15.2627 10.5375 15.3752 10.35 15.5627 10.2375C15.6377 10.2 15.7502 10.1625 15.8252 10.1625C15.9377 10.1625 16.0502 10.2 16.0877 10.275C16.1627 10.3875 16.0502 10.6125 15.8627 10.725Z" fill="black"/>
<path opacity="0.3" d="M12 0.75C8.2875 0.75 5.25 2.175 5.25 3.9C5.25 5.625 8.2875 7.05 12 7.05C15.7125 7.05 18.75 5.625 18.75 3.9C18.75 2.175 15.7125 0.75 12 0.75ZM12 6.225C8.5875 6.225 5.8125 5.1 5.8125 3.7125C5.8125 2.325 8.5875 1.0125 12 1.0125C15.4125 1.0125 18.1875 2.325 18.1875 3.7125C18.1875 5.1 15.4125 6.225 12 6.225Z" fill="#555E63"/>
</svg>
