<svg width="24" height="24" viewBox="0 0 24 24" fill="none" xmlns="http://www.w3.org/2000/svg">
<path d="M2.38298 10.6143C2.38298 10.6143 2.24986 15.3918 2.24986 16.0518C2.24986 16.7118 2.19173 17.3905 2.71486 17.7974C3.03173 18.0449 4.49236 19.1437 6.44048 20.2424C8.38861 21.3412 10.9911 22.648 11.5255 22.8674C12.0599 23.0868 12.6711 22.9649 13.3574 22.7099C13.9855 22.4774 15.3899 21.7668 17.4317 20.7299C19.4736 19.693 20.413 19.1699 20.983 18.718C21.4142 18.3768 21.8305 17.9324 21.7686 17.1468C21.7049 16.3612 21.7236 14.5762 21.6617 13.8224C21.598 13.0687 21.5492 10.3105 21.5492 10.3105L23.2292 7.22617C23.2292 7.22617 23.188 6.58305 23.0417 6.18555C22.8242 5.59305 22.4211 5.2743 22.4211 5.2743L9.17048 2.95117C9.17048 2.95117 2.40736 4.54867 2.03236 4.76617C1.65736 4.98367 0.684232 5.7918 0.710482 7.2318C0.749857 9.29992 2.38298 10.6143 2.38298 10.6143Z" fill="#E07F14"/>
<path d="M3.26082 10.3293C3.26082 10.3293 3.01145 15.8324 3.14457 16.6255C3.2552 17.2893 5.28207 18.4724 6.75957 19.3162C8.09082 20.0774 10.9127 21.2718 11.2989 21.4555C11.6852 21.6393 11.8689 21.2924 11.8689 20.9868C11.8689 20.6812 11.8896 14.0699 11.8896 14.0699C11.8896 14.0699 13.6071 13.7643 13.9314 12.238C14.2558 10.7118 12.5121 8.2968 7.83957 6.4818C3.01707 4.61242 1.60332 5.69805 1.54707 7.0443C1.46645 9.0393 3.26082 10.3293 3.26082 10.3293Z" fill="#FFEBCA"/>
<path d="M15.2737 10.7119C15.2737 10.7119 15.8175 12.6263 14.8143 13.6857C13.7981 14.7582 12.9431 14.9476 12.9431 14.9476C12.9431 14.9476 12.8737 15.8119 12.915 15.9132C13.0106 16.1513 16.0143 14.9269 17.9062 14.1338L21.5887 12.5888C21.5887 12.5888 21.5268 11.6532 21.5887 11.6738C21.6506 11.6944 22.6256 10.7382 22.9725 9.49693C23.3175 8.25568 23.2312 7.23193 23.2312 7.23193C23.2312 7.23193 20.1131 8.53318 19.0275 9.02818C17.9887 9.50068 15.7462 10.4532 15.2737 10.7119Z" fill="#AC5811"/>
<path d="M14.4264 9.1446C14.5502 9.2796 22.7908 5.69085 22.7908 5.69085C22.7908 5.69085 19.9839 1.27523 12.9246 1.15523C5.70393 1.03148 1.61643 4.9296 1.53018 5.16585C1.46268 5.3496 2.83518 3.55523 7.43268 5.04023C12.0302 6.52523 13.7477 8.4096 14.4264 9.1446Z" fill="#F5B03E"/>
</svg>
