<svg width="71" height="72" viewBox="0 0 71 72" fill="none" xmlns="http://www.w3.org/2000/svg">
<rect x="0.142822" y="0.469482" width="70.7143" height="70.7143" rx="35.3571" fill="#F5F5F5"/>
<path d="M37.7979 55.4383C44.1455 54.166 52.3526 49.5998 52.3526 37.792C52.3526 27.0468 44.4873 19.8915 38.8317 16.6038C37.5768 15.8743 36.1076 16.8337 36.1076 18.2853V21.9982C36.1076 24.9261 34.8766 30.2704 31.4561 32.4933C29.7098 33.6282 27.8237 31.9296 27.6115 29.8577L27.4372 28.1564C27.2346 26.1786 25.2203 24.9779 23.6395 26.1838C20.7997 28.3501 17.832 32.1436 17.832 37.792C17.832 52.2319 28.5718 55.8419 33.9416 55.8419C34.254 55.8419 34.5822 55.8326 34.9239 55.8129C32.2724 55.5863 27.9851 53.9412 27.9851 48.6214C27.9851 44.46 31.0211 41.6447 33.3277 40.2763C33.9481 39.9082 34.6742 40.3861 34.6742 41.1074V42.3039C34.6742 43.2195 35.0283 44.6508 35.8713 45.6306C36.8252 46.7393 38.2254 45.5779 38.3383 44.1197C38.3739 43.6596 38.8365 43.3665 39.2349 43.5993C40.5372 44.3604 42.1995 45.9862 42.1995 48.6214C42.1995 52.7801 39.907 54.6931 37.7979 55.4383Z" fill="#FFB700"/>
</svg>
