<svg width="36" height="36" viewBox="0 0 36 36" fill="none" xmlns="http://www.w3.org/2000/svg">
<rect width="36" height="36" rx="18" fill="white"/>
<path fill-rule="evenodd" clip-rule="evenodd" d="M11.0923 16.5342C11.0923 12.6666 14.1752 9.51318 18.0002 9.51318C21.8252 9.51318 24.9081 12.6666 24.9081 16.5342C24.9081 18.4014 24.3759 20.4063 23.4353 22.1383C22.4957 23.8683 21.123 25.3715 19.4058 26.1742C18.5138 26.5911 17.4866 26.5911 16.5945 26.1742C14.8773 25.3715 13.5046 23.8683 12.5651 22.1383C11.6244 20.4063 11.0923 18.4014 11.0923 16.5342ZM18.0002 10.6974C14.8489 10.6974 12.2765 13.3007 12.2765 16.5342C12.2765 18.1898 12.7523 20.0017 13.6057 21.5732C14.4604 23.1468 15.6681 24.4339 17.096 25.1013C17.6702 25.3698 18.3301 25.3698 18.9044 25.1013C20.3323 24.4339 21.54 23.1468 22.3946 21.5732C23.2481 20.0017 23.7239 18.1898 23.7239 16.5342C23.7239 13.3007 21.1514 10.6974 18.0002 10.6974ZM18.0002 14.6448C17.0191 14.6448 16.2239 15.44 16.2239 16.4211C16.2239 17.4021 17.0191 18.1974 18.0002 18.1974C18.9812 18.1974 19.7765 17.4021 19.7765 16.4211C19.7765 15.44 18.9812 14.6448 18.0002 14.6448ZM15.0397 16.4211C15.0397 14.786 16.3651 13.4606 18.0002 13.4606C19.6352 13.4606 20.9607 14.786 20.9607 16.4211C20.9607 18.0561 19.6352 19.3816 18.0002 19.3816C16.3651 19.3816 15.0397 18.0561 15.0397 16.4211Z" fill="black" fill-opacity="0.4"/>
</svg>
