<svg width="19" height="14" viewBox="0 0 19 14" fill="none" xmlns="http://www.w3.org/2000/svg">
<path d="M11.6667 0C13.4348 0 15.1305 0.702379 16.3807 1.95262C17.631 3.20286 18.3333 4.89856 18.3333 6.66667C18.3333 8.43478 17.631 10.1305 16.3807 11.3807C15.1305 12.631 13.4348 13.3333 11.6667 13.3333C9.89856 13.3333 8.20286 12.631 6.95262 11.3807C5.70238 10.1305 5 8.43478 5 6.66667C5 4.89856 5.70238 3.20286 6.95262 1.95262C8.20286 0.702379 9.89856 0 11.6667 0ZM11.6667 1.66667C10.3406 1.66667 9.06882 2.19345 8.13113 3.13113C7.19345 4.06881 6.66667 5.34058 6.66667 6.66667C6.66667 7.99275 7.19345 9.26452 8.13113 10.2022C9.06882 11.1399 10.3406 11.6667 11.6667 11.6667C12.9928 11.6667 14.2645 11.1399 15.2022 10.2022C16.1399 9.26452 16.6667 7.99275 16.6667 6.66667C16.6667 5.34058 16.1399 4.06881 15.2022 3.13113C14.2645 2.19345 12.9928 1.66667 11.6667 1.66667ZM10.8333 3.33333H12.0833V6.48333L14.025 8.425L13.1417 9.30833L10.8333 7V3.33333ZM0.833333 11.6667C0.61232 11.6667 0.400358 11.5789 0.244078 11.4226C0.0877973 11.2663 0 11.0543 0 10.8333C0 10.6123 0.0877973 10.4004 0.244078 10.2441C0.400358 10.0878 0.61232 10 0.833333 10H4.025C4.28333 10.5917 4.61667 11.15 5 11.6667H0.833333ZM1.66667 7.5C1.44565 7.5 1.23369 7.4122 1.07741 7.25592C0.921131 7.09964 0.833333 6.88768 0.833333 6.66667C0.833333 6.44565 0.921131 6.23369 1.07741 6.07741C1.23369 5.92113 1.44565 5.83333 1.66667 5.83333H3.375L3.33333 6.66667L3.375 7.5H1.66667ZM2.5 3.33333C2.27899 3.33333 2.06702 3.24554 1.91074 3.08926C1.75446 2.93298 1.66667 2.72101 1.66667 2.5C1.66667 2.27899 1.75446 2.06702 1.91074 1.91074C2.06702 1.75446 2.27899 1.66667 2.5 1.66667H5C4.61667 2.18333 4.28333 2.74167 4.025 3.33333H2.5Z" fill="black"/>
</svg>
