<svg width="30" height="30" viewBox="0 0 30 30" fill="none" xmlns="http://www.w3.org/2000/svg">
<path d="M11.985 10.4428L9.04444 10.089C8.35938 10.0065 8.01683 9.96533 7.7321 10.0365C7.35245 10.1313 7.02904 10.362 6.83301 10.6777C6.68599 10.9145 6.64149 11.2317 6.55249 11.8662C6.46349 12.5007 6.41899 12.8179 6.49581 13.0816C6.59824 13.4332 6.84728 13.7328 7.18815 13.9143C7.44381 14.0505 8.15392 14.1359 8.83899 14.2183L7.95558 20.5163C7.27051 20.4339 6.5604 20.3484 6.27567 20.4196C5.89602 20.5144 5.57261 20.7451 5.37658 21.0608C5.22956 21.2976 5.18506 21.6148 5.09606 22.2493C5.00706 22.8838 4.96256 23.201 5.03938 23.4647C5.1418 23.8163 5.39085 24.1159 5.73172 24.2974C5.98738 24.4336 6.32992 24.4748 7.01498 24.5572L9.95556 24.911C10.6406 24.9935 10.9832 25.0347 11.2679 24.9635C11.6476 24.8687 11.971 24.638 12.167 24.3223C12.314 24.0855 12.3585 23.7683 12.4475 23.1338C12.5365 22.4993 12.581 22.1821 12.5042 21.9184C12.4018 21.5668 12.1527 21.2672 11.8118 21.0857C11.5562 20.9495 10.8461 20.8641 10.161 20.7817L11.0444 14.4837C11.7295 14.5661 12.4396 14.6516 12.7243 14.5804C13.104 14.4856 13.4274 14.2549 13.6234 13.9392C13.7704 13.7024 13.8149 13.3852 13.9039 12.7507C13.9929 12.1162 14.0374 11.799 13.9606 11.5353C13.8582 11.1837 13.6092 10.8841 13.2683 10.7026C13.0126 10.5664 12.6701 10.5252 11.985 10.4428Z" fill="black"/>
<path d="M23.2855 19.0833L20.5741 19.7826C19.9424 19.9456 19.6266 20.027 19.3498 19.992C18.9807 19.9452 18.6461 19.7592 18.4195 19.4749C18.2496 19.2617 18.1649 18.9577 17.9957 18.3496C17.8264 17.7416 17.7418 17.4375 17.7782 17.1711C17.8268 16.8158 18.02 16.4937 18.3153 16.2756C18.5368 16.112 19.1916 15.9431 19.8233 15.7801L18.1432 9.74438C17.5115 9.90732 16.8567 10.0762 16.5799 10.0411C16.2109 9.99435 15.8762 9.80837 15.6496 9.52409C15.4797 9.31089 15.3951 9.00685 15.2258 8.39879C15.0565 7.79072 14.9719 7.48669 15.0084 7.22024C15.0569 6.86498 15.2501 6.54285 15.5455 6.32472C15.767 6.16112 16.0828 6.07965 16.7145 5.91672L19.4259 5.21736C20.0576 5.05443 20.3734 4.97296 20.6502 5.00804C21.0193 5.05481 21.3539 5.24079 21.5805 5.52507C21.7504 5.73828 21.8351 6.04232 22.0043 6.65038C22.1736 7.25844 22.2582 7.56248 22.2218 7.82892C22.1732 8.18418 21.98 8.50631 21.6847 8.72445C21.4632 8.88805 20.8084 9.05693 20.1767 9.21986L21.8568 15.2556C22.4885 15.0927 23.1433 14.9238 23.4201 14.9589C23.7891 15.0056 24.1238 15.1916 24.3504 15.4759C24.5203 15.6891 24.6049 15.9932 24.7742 16.6012C24.9435 17.2093 25.0281 17.5133 24.9916 17.7798C24.9431 18.135 24.7499 18.4571 24.4545 18.6753C24.233 18.8389 23.9172 18.9203 23.2855 19.0833Z" fill="black"/>
</svg>
