<svg width="67" height="66" viewBox="0 0 67 66" fill="none" xmlns="http://www.w3.org/2000/svg">
<rect x="0.5" width="66" height="66" rx="33" fill="#F5F5F5"/>
<path fill-rule="evenodd" clip-rule="evenodd" d="M20.8354 30.3128C20.8354 23.2221 26.4874 17.4409 33.4999 17.4409C40.5124 17.4409 46.1644 23.2221 46.1644 30.3128C46.1644 33.736 45.1888 37.4116 43.4643 40.587C41.7418 43.7586 39.2252 46.5145 36.077 47.986C34.4415 48.7504 32.5583 48.7504 30.9229 47.986C27.7747 46.5145 25.2581 43.7586 23.5356 40.587C21.811 37.4116 20.8354 33.736 20.8354 30.3128ZM33.4999 19.612C27.7227 19.612 23.0065 24.3846 23.0065 30.3128C23.0065 33.348 23.8787 36.6698 25.4434 39.5509C27.0103 42.4359 29.2244 44.7957 31.8422 46.0192C32.895 46.5113 34.1048 46.5113 35.1577 46.0192C37.7754 44.7957 39.9896 42.4359 41.5564 39.5509C43.1211 36.6698 43.9933 33.348 43.9933 30.3128C43.9933 24.3846 39.2772 19.612 33.4999 19.612ZM33.4999 26.8488C31.7014 26.8488 30.2433 28.3068 30.2433 30.1054C30.2433 31.9039 31.7014 33.362 33.4999 33.362C35.2985 33.362 36.7565 31.9039 36.7565 30.1054C36.7565 28.3068 35.2985 26.8488 33.4999 26.8488ZM28.0723 30.1054C28.0723 27.1078 30.5023 24.6778 33.4999 24.6778C36.4975 24.6778 38.9276 27.1078 38.9276 30.1054C38.9276 33.103 36.4975 35.533 33.4999 35.533C30.5023 35.533 28.0723 33.103 28.0723 30.1054Z" fill="black"/>
</svg>
