<svg width="337" height="340" viewBox="0 0 337 340" fill="none" xmlns="http://www.w3.org/2000/svg">
<g clip-path="url(#clip0_6_934)">
<rect width="336.838" height="193" rx="25" fill="#E6E6E6"/>
<path d="M256.962 191.832C263.239 175.946 265.5 158.758 263.547 141.79C261.594 124.822 255.486 108.597 245.765 94.553C236.044 80.5091 223.009 69.0794 207.815 61.2763C192.621 53.4733 175.738 49.5377 158.66 49.8183C141.582 50.0989 124.836 54.587 109.907 62.885C94.9782 71.183 82.3258 83.0347 73.0711 97.3904C63.8164 111.746 58.245 128.163 56.8503 145.186C55.4556 162.209 58.2807 179.314 65.0754 194.984" stroke="black" stroke-opacity="0.1" stroke-width="19" stroke-linecap="round"/>
<path d="M159.877 50.5597C142.799 50.8403 126.054 55.3284 111.124 63.6264C96.1952 71.9243 83.5429 83.7761 74.2881 98.1318C65.0334 112.488 59.462 128.904 58.0673 145.927C56.6726 162.951 59.4977 180.055 66.2924 195.726" stroke="#FFB700" stroke-width="19" stroke-linecap="round"/>
<path d="M136.92 132.389C134.459 132.389 132.348 131.87 130.586 130.834C128.825 129.772 127.477 128.244 126.545 126.249C125.612 124.254 125.146 121.793 125.146 118.865C125.146 115.757 125.703 113.127 126.817 110.977C127.957 108.826 129.524 107.194 131.519 106.08C133.54 104.966 135.858 104.409 138.475 104.409C139.848 104.409 141.156 104.552 142.4 104.837C143.669 105.122 144.744 105.562 145.625 106.158L143.76 109.966C143.008 109.474 142.192 109.137 141.312 108.956C140.457 108.749 139.55 108.645 138.591 108.645C136.027 108.645 133.993 109.435 132.49 111.016C130.988 112.596 130.236 114.928 130.236 118.01C130.236 118.503 130.249 119.086 130.275 119.759C130.301 120.407 130.392 121.067 130.547 121.741L128.993 120.031C129.459 118.969 130.094 118.088 130.897 117.389C131.726 116.663 132.698 116.119 133.812 115.757C134.951 115.394 136.182 115.212 137.503 115.212C139.291 115.212 140.884 115.562 142.283 116.262C143.682 116.935 144.796 117.907 145.625 119.176C146.454 120.42 146.869 121.883 146.869 123.567C146.869 125.355 146.428 126.909 145.547 128.231C144.666 129.552 143.475 130.575 141.972 131.301C140.47 132.026 138.786 132.389 136.92 132.389ZM136.648 128.425C137.685 128.425 138.604 128.244 139.407 127.881C140.21 127.492 140.832 126.948 141.273 126.249C141.739 125.549 141.972 124.733 141.972 123.801C141.972 122.376 141.48 121.249 140.495 120.42C139.511 119.591 138.19 119.176 136.532 119.176C135.444 119.176 134.485 119.383 133.656 119.798C132.853 120.187 132.205 120.731 131.713 121.43C131.247 122.13 131.014 122.933 131.014 123.839C131.014 124.668 131.234 125.433 131.674 126.132C132.115 126.832 132.749 127.389 133.578 127.803C134.433 128.218 135.457 128.425 136.648 128.425ZM149.159 132V128.619L159.963 118.36C160.869 117.505 161.543 116.754 161.983 116.106C162.424 115.459 162.709 114.863 162.838 114.319C162.994 113.749 163.071 113.218 163.071 112.725C163.071 111.482 162.644 110.523 161.789 109.85C160.934 109.15 159.678 108.801 158.02 108.801C156.698 108.801 155.494 109.034 154.406 109.5C153.343 109.966 152.424 110.679 151.646 111.637L148.11 108.917C149.172 107.492 150.597 106.391 152.385 105.614C154.198 104.811 156.219 104.409 158.447 104.409C160.416 104.409 162.126 104.733 163.576 105.381C165.053 106.003 166.18 106.896 166.957 108.062C167.76 109.228 168.162 110.614 168.162 112.22C168.162 113.101 168.045 113.982 167.812 114.863C167.579 115.718 167.139 116.624 166.491 117.583C165.843 118.541 164.898 119.617 163.654 120.808L154.367 129.63L153.317 127.725H169.211V132H149.159ZM183.474 132.389C181.324 132.389 179.381 131.845 177.645 130.756C175.935 129.668 174.588 128.088 173.604 126.016C172.619 123.917 172.127 121.378 172.127 118.399C172.127 115.42 172.619 112.894 173.604 110.821C174.588 108.723 175.935 107.13 177.645 106.042C179.381 104.953 181.324 104.409 183.474 104.409C185.65 104.409 187.593 104.953 189.303 106.042C191.013 107.13 192.36 108.723 193.344 110.821C194.355 112.894 194.86 115.42 194.86 118.399C194.86 121.378 194.355 123.917 193.344 126.016C192.36 128.088 191.013 129.668 189.303 130.756C187.593 131.845 185.65 132.389 183.474 132.389ZM183.474 127.997C184.743 127.997 185.844 127.661 186.777 126.987C187.71 126.288 188.435 125.225 188.953 123.801C189.497 122.376 189.769 120.575 189.769 118.399C189.769 116.197 189.497 114.396 188.953 112.997C188.435 111.573 187.71 110.523 186.777 109.85C185.844 109.15 184.743 108.801 183.474 108.801C182.256 108.801 181.168 109.15 180.21 109.85C179.277 110.523 178.539 111.573 177.995 112.997C177.477 114.396 177.218 116.197 177.218 118.399C177.218 120.575 177.477 122.376 177.995 123.801C178.539 125.225 179.277 126.288 180.21 126.987C181.168 127.661 182.256 127.997 183.474 127.997Z" fill="black"/>
<path d="M111.668 161.886L117.892 144.12H119.533L113.309 161.886H111.668ZM119.524 160V158.718L124.9 153.531C125.377 153.078 125.729 152.682 125.956 152.343C126.195 151.991 126.352 151.67 126.427 151.381C126.515 151.079 126.559 150.79 126.559 150.513C126.559 149.834 126.32 149.3 125.843 148.91C125.365 148.521 124.667 148.326 123.749 148.326C123.045 148.326 122.41 148.445 121.844 148.684C121.278 148.91 120.788 149.269 120.373 149.759L119.091 148.646C119.594 148.005 120.266 147.515 121.109 147.175C121.964 146.823 122.9 146.647 123.919 146.647C124.837 146.647 125.635 146.798 126.314 147.1C126.993 147.389 127.515 147.81 127.879 148.363C128.257 148.917 128.445 149.57 128.445 150.325C128.445 150.752 128.389 151.174 128.275 151.588C128.162 152.003 127.949 152.443 127.634 152.909C127.32 153.374 126.867 153.896 126.276 154.474L121.486 159.095L121.033 158.359H129.011V160H119.524ZM135.937 160.151C134.906 160.151 133.982 159.887 133.165 159.359C132.36 158.831 131.719 158.064 131.241 157.058C130.776 156.052 130.543 154.832 130.543 153.399C130.543 151.966 130.776 150.746 131.241 149.74C131.719 148.734 132.36 147.967 133.165 147.439C133.982 146.911 134.906 146.647 135.937 146.647C136.956 146.647 137.874 146.911 138.691 147.439C139.508 147.967 140.149 148.734 140.614 149.74C141.08 150.746 141.312 151.966 141.312 153.399C141.312 154.832 141.08 156.052 140.614 157.058C140.149 158.064 139.508 158.831 138.691 159.359C137.874 159.887 136.956 160.151 135.937 160.151ZM135.937 158.472C136.629 158.472 137.232 158.284 137.748 157.907C138.276 157.529 138.684 156.964 138.974 156.209C139.275 155.455 139.426 154.518 139.426 153.399C139.426 152.28 139.275 151.343 138.974 150.589C138.684 149.834 138.276 149.269 137.748 148.891C137.232 148.514 136.629 148.326 135.937 148.326C135.246 148.326 134.636 148.514 134.108 148.891C133.58 149.269 133.165 149.834 132.863 150.589C132.574 151.343 132.429 152.28 132.429 153.399C132.429 154.518 132.574 155.455 132.863 156.209C133.165 156.964 133.58 157.529 134.108 157.907C134.636 158.284 135.246 158.472 135.937 158.472ZM148.517 160.151C147.486 160.151 146.562 159.887 145.744 159.359C144.94 158.831 144.298 158.064 143.821 157.058C143.355 156.052 143.123 154.832 143.123 153.399C143.123 151.966 143.355 150.746 143.821 149.74C144.298 148.734 144.94 147.967 145.744 147.439C146.562 146.911 147.486 146.647 148.517 146.647C149.535 146.647 150.453 146.911 151.27 147.439C152.088 147.967 152.729 148.734 153.194 149.74C153.659 150.746 153.892 151.966 153.892 153.399C153.892 154.832 153.659 156.052 153.194 157.058C152.729 158.064 152.088 158.831 151.27 159.359C150.453 159.887 149.535 160.151 148.517 160.151ZM148.517 158.472C149.208 158.472 149.812 158.284 150.327 157.907C150.855 157.529 151.264 156.964 151.553 156.209C151.855 155.455 152.006 154.518 152.006 153.399C152.006 152.28 151.855 151.343 151.553 150.589C151.264 149.834 150.855 149.269 150.327 148.891C149.812 148.514 149.208 148.326 148.517 148.326C147.825 148.326 147.215 148.514 146.687 148.891C146.159 149.269 145.744 149.834 145.443 150.589C145.153 151.343 145.009 152.28 145.009 153.399C145.009 154.518 145.153 155.455 145.443 156.209C145.744 156.964 146.159 157.529 146.687 157.907C147.215 158.284 147.825 158.472 148.517 158.472ZM161.096 160.151C160.065 160.151 159.141 159.887 158.324 159.359C157.519 158.831 156.878 158.064 156.4 157.058C155.935 156.052 155.702 154.832 155.702 153.399C155.702 151.966 155.935 150.746 156.4 149.74C156.878 148.734 157.519 147.967 158.324 147.439C159.141 146.911 160.065 146.647 161.096 146.647C162.115 146.647 163.032 146.911 163.85 147.439C164.667 147.967 165.308 148.734 165.773 149.74C166.239 150.746 166.471 151.966 166.471 153.399C166.471 154.832 166.239 156.052 165.773 157.058C165.308 158.064 164.667 158.831 163.85 159.359C163.032 159.887 162.115 160.151 161.096 160.151ZM161.096 158.472C161.788 158.472 162.391 158.284 162.907 157.907C163.435 157.529 163.843 156.964 164.133 156.209C164.434 155.455 164.585 154.518 164.585 153.399C164.585 152.28 164.434 151.343 164.133 150.589C163.843 149.834 163.435 149.269 162.907 148.891C162.391 148.514 161.788 148.326 161.096 148.326C160.405 148.326 159.795 148.514 159.267 148.891C158.739 149.269 158.324 149.834 158.022 150.589C157.733 151.343 157.588 152.28 157.588 153.399C157.588 154.518 157.733 155.455 158.022 156.209C158.324 156.964 158.739 157.529 159.267 157.907C159.795 158.284 160.405 158.472 161.096 158.472ZM171.016 156.813L170.922 154.512L178.409 146.798H180.56L174.77 152.909L173.713 154.078L171.016 156.813ZM169.357 160V146.798H171.243V160H169.357ZM178.711 160L173.298 153.701L174.562 152.305L180.918 160H178.711ZM186.563 160.113C185.544 160.113 184.633 159.893 183.828 159.453C183.036 159.013 182.414 158.409 181.961 157.642C181.508 156.876 181.282 155.995 181.282 155.002C181.282 154.009 181.508 153.129 181.961 152.362C182.414 151.595 183.036 150.997 183.828 150.57C184.633 150.13 185.544 149.91 186.563 149.91C187.468 149.91 188.273 150.092 188.977 150.457C189.694 150.809 190.247 151.337 190.637 152.041L189.26 152.927C188.933 152.437 188.531 152.079 188.053 151.852C187.588 151.614 187.085 151.494 186.544 151.494C185.89 151.494 185.306 151.639 184.79 151.928C184.275 152.217 183.866 152.626 183.564 153.154C183.262 153.669 183.112 154.285 183.112 155.002C183.112 155.719 183.262 156.341 183.564 156.869C183.866 157.397 184.275 157.806 184.79 158.095C185.306 158.384 185.89 158.529 186.544 158.529C187.085 158.529 187.588 158.416 188.053 158.189C188.531 157.951 188.933 157.586 189.26 157.096L190.637 157.963C190.247 158.655 189.694 159.189 188.977 159.566C188.273 159.931 187.468 160.113 186.563 160.113ZM199.186 160V157.888L199.091 157.492V153.889C199.091 153.122 198.865 152.531 198.412 152.117C197.972 151.689 197.306 151.475 196.413 151.475C195.822 151.475 195.244 151.576 194.678 151.777C194.112 151.966 193.635 152.223 193.245 152.55L192.49 151.192C193.006 150.777 193.622 150.463 194.339 150.249C195.068 150.023 195.829 149.91 196.621 149.91C197.991 149.91 199.047 150.243 199.789 150.909C200.531 151.576 200.902 152.594 200.902 153.965V160H199.186ZM195.904 160.113C195.162 160.113 194.508 159.987 193.943 159.736C193.389 159.484 192.962 159.139 192.66 158.699C192.358 158.246 192.208 157.737 192.208 157.171C192.208 156.63 192.333 156.14 192.585 155.7C192.849 155.26 193.27 154.908 193.848 154.644C194.439 154.38 195.231 154.248 196.225 154.248H199.393V155.549H196.3C195.395 155.549 194.785 155.7 194.471 156.002C194.156 156.303 193.999 156.668 193.999 157.096C193.999 157.586 194.194 157.982 194.584 158.284C194.974 158.573 195.514 158.718 196.206 158.718C196.885 158.718 197.476 158.567 197.979 158.265C198.494 157.963 198.865 157.523 199.091 156.945L199.45 158.189C199.211 158.78 198.79 159.252 198.186 159.604C197.583 159.943 196.822 160.113 195.904 160.113ZM204.253 160V146.006H206.063V160H204.253Z" fill="black" fill-opacity="0.5"/>
</g>
<rect y="208" width="105.613" height="131.536" rx="19.2023" fill="#E6E6E6"/>
<path d="M19.3021 292V280.157L20.3406 281.232H16.6055V279.246H21.6707V292H19.3021ZM24.0367 292V290.415L29.1019 285.605C29.527 285.204 29.8428 284.852 30.0493 284.548C30.2558 284.244 30.3894 283.965 30.4502 283.71C30.523 283.443 30.5595 283.194 30.5595 282.963C30.5595 282.38 30.3591 281.93 29.9582 281.615C29.5574 281.287 28.9683 281.123 28.1909 281.123C27.5714 281.123 27.0066 281.232 26.4964 281.451C25.9984 281.669 25.5672 282.003 25.2028 282.453L23.5448 281.177C24.0428 280.509 24.7109 279.993 25.549 279.629C26.3992 279.252 27.3467 279.064 28.3913 279.064C29.3144 279.064 30.1161 279.216 30.7963 279.519C31.4887 279.811 32.0171 280.23 32.3815 280.776C32.758 281.323 32.9463 281.973 32.9463 282.726C32.9463 283.139 32.8916 283.552 32.7823 283.965C32.673 284.366 32.4665 284.791 32.1628 285.24C31.8592 285.69 31.4158 286.194 30.8328 286.753L26.4782 290.889L25.9863 289.996H33.4382V292H24.0367ZM40.1255 292.182C39.1174 292.182 38.2064 291.927 37.3925 291.417C36.5909 290.907 35.9592 290.166 35.4977 289.194C35.0361 288.21 34.8053 287.02 34.8053 285.623C34.8053 284.226 35.0361 283.042 35.4977 282.07C35.9592 281.086 36.5909 280.339 37.3925 279.829C38.2064 279.319 39.1174 279.064 40.1255 279.064C41.1459 279.064 42.0569 279.319 42.8585 279.829C43.6602 280.339 44.2918 281.086 44.7534 282.07C45.2271 283.042 45.464 284.226 45.464 285.623C45.464 287.02 45.2271 288.21 44.7534 289.194C44.2918 290.166 43.6602 290.907 42.8585 291.417C42.0569 291.927 41.1459 292.182 40.1255 292.182ZM40.1255 290.123C40.7207 290.123 41.237 289.965 41.6742 289.65C42.1115 289.322 42.4516 288.824 42.6946 288.156C42.9496 287.488 43.0772 286.643 43.0772 285.623C43.0772 284.591 42.9496 283.746 42.6946 283.09C42.4516 282.422 42.1115 281.93 41.6742 281.615C41.237 281.287 40.7207 281.123 40.1255 281.123C39.5546 281.123 39.0445 281.287 38.5951 281.615C38.1578 281.93 37.8116 282.422 37.5565 283.09C37.3136 283.746 37.1921 284.591 37.1921 285.623C37.1921 286.643 37.3136 287.488 37.5565 288.156C37.8116 288.824 38.1578 289.322 38.5951 289.65C39.0445 289.965 39.5546 290.123 40.1255 290.123Z" fill="black"/>
<path d="M45.9768 293.022L49.3494 283.395H50.2386L46.866 293.022H45.9768ZM51.8619 292V285.255L52.3013 285.735H50.2471V284.846H52.8736V292H51.8619ZM56.7482 292.082C56.244 292.082 55.7535 292.003 55.2765 291.847C54.8064 291.69 54.4215 291.479 54.1217 291.213L54.5918 290.406C54.8303 290.631 55.1403 290.814 55.5218 290.958C55.9034 291.101 56.3088 291.172 56.738 291.172C57.2831 291.172 57.7021 291.056 57.9951 290.825C58.288 290.593 58.4345 290.283 58.4345 289.895C58.4345 289.629 58.3698 289.397 58.2403 289.2C58.1109 289.002 57.886 288.852 57.5658 288.75C57.2524 288.641 56.8198 288.587 56.2679 288.587H54.6429L55.021 284.846H59.0579V285.735H55.3992L55.9306 285.234L55.6342 288.188L55.1028 287.697H56.4825C57.1979 287.697 57.7736 287.789 58.2097 287.973C58.6457 288.157 58.9626 288.413 59.1601 288.74C59.3577 289.06 59.4565 289.431 59.4565 289.854C59.4565 290.263 59.3577 290.637 59.1601 290.978C58.9626 291.312 58.6628 291.581 58.2608 291.785C57.8656 291.983 57.3614 292.082 56.7482 292.082ZM63.2299 292.082C62.6712 292.082 62.1705 291.939 61.7276 291.653C61.2915 291.366 60.9441 290.951 60.6852 290.406C60.4331 289.861 60.307 289.2 60.307 288.423C60.307 287.646 60.4331 286.985 60.6852 286.44C60.9441 285.895 61.2915 285.48 61.7276 285.193C62.1705 284.907 62.6712 284.764 63.2299 284.764C63.7818 284.764 64.2792 284.907 64.7221 285.193C65.1649 285.48 65.5124 285.895 65.7645 286.44C66.0166 286.985 66.1426 287.646 66.1426 288.423C66.1426 289.2 66.0166 289.861 65.7645 290.406C65.5124 290.951 65.1649 291.366 64.7221 291.653C64.2792 291.939 63.7818 292.082 63.2299 292.082ZM63.2299 291.172C63.6047 291.172 63.9317 291.07 64.2111 290.866C64.4972 290.661 64.7186 290.355 64.8754 289.946C65.0389 289.537 65.1206 289.029 65.1206 288.423C65.1206 287.817 65.0389 287.309 64.8754 286.9C64.7186 286.491 64.4972 286.185 64.2111 285.98C63.9317 285.776 63.6047 285.674 63.2299 285.674C62.8552 285.674 62.5248 285.776 62.2386 285.98C61.9524 286.185 61.7276 286.491 61.5641 286.9C61.4074 287.309 61.329 287.817 61.329 288.423C61.329 289.029 61.4074 289.537 61.5641 289.946C61.7276 290.355 61.9524 290.661 62.2386 290.866C62.5248 291.07 62.8552 291.172 63.2299 291.172ZM68.6056 290.273L68.5545 289.026L72.6118 284.846H73.7769L70.6394 288.157L70.067 288.791L68.6056 290.273ZM67.7062 292V284.846H68.7282V292H67.7062ZM72.7753 292L69.8422 288.587L70.5269 287.83L73.9711 292H72.7753ZM77.03 292.061C76.4782 292.061 75.9842 291.942 75.5481 291.704C75.1189 291.465 74.7816 291.138 74.5364 290.722C74.2911 290.307 74.1684 289.83 74.1684 289.292C74.1684 288.753 74.2911 288.277 74.5364 287.861C74.7816 287.445 75.1189 287.122 75.5481 286.89C75.9842 286.652 76.4782 286.532 77.03 286.532C77.5206 286.532 77.9567 286.631 78.3382 286.829C78.7266 287.019 79.0264 287.306 79.2376 287.687L78.4915 288.167C78.3144 287.902 78.0963 287.708 77.8374 287.585C77.5853 287.456 77.3128 287.391 77.0198 287.391C76.6655 287.391 76.3487 287.469 76.0694 287.626C75.79 287.783 75.5686 288.004 75.4051 288.29C75.2415 288.569 75.1598 288.903 75.1598 289.292C75.1598 289.68 75.2415 290.017 75.4051 290.303C75.5686 290.59 75.79 290.811 76.0694 290.968C76.3487 291.124 76.6655 291.203 77.0198 291.203C77.3128 291.203 77.5853 291.142 77.8374 291.019C78.0963 290.889 78.3144 290.692 78.4915 290.426L79.2376 290.896C79.0264 291.271 78.7266 291.561 78.3382 291.765C77.9567 291.963 77.5206 292.061 77.03 292.061ZM83.8702 292V290.855L83.8191 290.641V288.689C83.8191 288.273 83.6964 287.953 83.4512 287.728C83.2127 287.496 82.8516 287.381 82.3678 287.381C82.0476 287.381 81.7342 287.435 81.4276 287.544C81.121 287.646 80.8621 287.786 80.6509 287.963L80.2421 287.227C80.5214 287.002 80.8553 286.832 81.2436 286.716C81.6388 286.594 82.051 286.532 82.4803 286.532C83.2229 286.532 83.7952 286.713 84.1972 287.074C84.5992 287.435 84.8002 287.987 84.8002 288.73V292H83.8702ZM82.0919 292.061C81.6899 292.061 81.3356 291.993 81.029 291.857C80.7292 291.721 80.4976 291.533 80.3341 291.295C80.1705 291.05 80.0888 290.774 80.0888 290.467C80.0888 290.174 80.1569 289.908 80.2932 289.67C80.4363 289.431 80.6645 289.241 80.9779 289.098C81.2981 288.954 81.7274 288.883 82.2656 288.883H83.9826V289.588H82.3065C81.816 289.588 81.4855 289.67 81.3152 289.833C81.1448 289.997 81.0597 290.194 81.0597 290.426C81.0597 290.692 81.1653 290.906 81.3765 291.07C81.5877 291.227 81.8807 291.305 82.2554 291.305C82.6233 291.305 82.9436 291.223 83.2161 291.06C83.4954 290.896 83.6964 290.658 83.8191 290.344L84.0133 291.019C83.8838 291.339 83.6556 291.595 83.3285 291.785C83.0015 291.969 82.5893 292.061 82.0919 292.061ZM86.6158 292V284.417H87.597V292H86.6158Z" fill="black" fill-opacity="0.5"/>
<path d="M26.6296 313V302.904H30.8387C31.2843 302.904 31.6919 302.999 32.0616 303.188C32.4314 303.368 32.7537 303.615 33.0286 303.928C33.3035 304.231 33.5168 304.577 33.6685 304.966C33.8202 305.345 33.896 305.734 33.896 306.132C33.896 306.682 33.7728 307.208 33.5263 307.71C33.2798 308.203 32.9338 308.606 32.4882 308.919C32.0427 309.222 31.5213 309.374 30.924 309.374H27.9094V313H26.6296ZM27.9094 308.236H30.8529C31.2037 308.236 31.5071 308.141 31.763 307.952C32.0285 307.762 32.2323 307.506 32.3745 307.184C32.5262 306.862 32.602 306.511 32.602 306.132C32.602 305.734 32.5167 305.378 32.346 305.065C32.1754 304.743 31.9526 304.492 31.6777 304.312C31.4028 304.131 31.0994 304.041 30.7676 304.041H27.9094V308.236ZM39.215 306.672C38.5893 306.682 38.0347 306.843 37.5512 307.156C37.0772 307.459 36.7407 307.881 36.5416 308.421V313H35.2902V305.577H36.4563V307.298C36.7122 306.786 37.0488 306.373 37.4659 306.061C37.8925 305.738 38.3381 305.558 38.8026 305.52C38.8974 305.52 38.978 305.52 39.0443 305.52C39.1107 305.52 39.1676 305.525 39.215 305.534V306.672ZM43.5177 313.142C42.9584 313.142 42.4512 313.043 41.9962 312.844C41.5412 312.635 41.1477 312.355 40.8159 312.005C40.4841 311.644 40.2282 311.232 40.0481 310.767C39.8679 310.303 39.7779 309.815 39.7779 309.303C39.7779 308.781 39.8679 308.288 40.0481 307.824C40.2282 307.359 40.4841 306.952 40.8159 306.601C41.1477 306.241 41.5412 305.961 41.9962 305.762C42.4607 305.553 42.9679 305.449 43.5177 305.449C44.0771 305.449 44.5842 305.553 45.0393 305.762C45.4943 305.961 45.8877 306.241 46.2195 306.601C46.5608 306.952 46.8215 307.359 47.0016 307.824C47.1818 308.288 47.2718 308.781 47.2718 309.303C47.2718 309.815 47.1818 310.303 47.0016 310.767C46.8215 311.232 46.5656 311.644 46.2338 312.005C45.902 312.355 45.5038 312.635 45.0393 312.844C44.5842 313.043 44.0771 313.142 43.5177 313.142ZM41.0577 309.317C41.0577 309.829 41.1667 310.293 41.3847 310.711C41.6123 311.128 41.9109 311.459 42.2806 311.706C42.6503 311.943 43.0627 312.061 43.5177 312.061C43.9728 312.061 44.3852 311.938 44.7549 311.692C45.1341 311.445 45.4327 311.113 45.6507 310.696C45.8783 310.27 45.992 309.8 45.992 309.289C45.992 308.777 45.8783 308.312 45.6507 307.895C45.4327 307.478 45.1341 307.146 44.7549 306.9C44.3852 306.653 43.9728 306.53 43.5177 306.53C43.0627 306.53 42.6503 306.658 42.2806 306.914C41.9109 307.16 41.6123 307.492 41.3847 307.909C41.1667 308.326 41.0577 308.796 41.0577 309.317ZM52.5164 312.63C52.4122 312.678 52.27 312.739 52.0898 312.815C51.9097 312.891 51.7012 312.957 51.4642 313.014C51.2272 313.071 50.9759 313.1 50.7105 313.1C50.4071 313.1 50.1275 313.047 49.8715 312.943C49.6156 312.829 49.4117 312.659 49.2601 312.431C49.1084 312.194 49.0325 311.9 49.0325 311.55V306.558H48.0229V305.577H49.0325V303.103H50.2839V305.577H51.9476V306.558H50.2839V311.166C50.3029 311.431 50.3929 311.63 50.5541 311.763C50.7152 311.886 50.9048 311.948 51.1229 311.948C51.3694 311.948 51.5969 311.905 51.8054 311.82C52.014 311.734 52.1515 311.673 52.2178 311.635L52.5164 312.63ZM56.8639 313.142C56.3046 313.142 55.7926 313.043 55.3281 312.844C54.8731 312.635 54.4749 312.355 54.1336 312.005C53.8018 311.644 53.5411 311.232 53.3515 310.767C53.1714 310.303 53.0814 309.81 53.0814 309.289C53.0814 308.587 53.2425 307.947 53.5648 307.369C53.8872 306.791 54.3327 306.326 54.9015 305.975C55.4798 305.625 56.1387 305.449 56.8781 305.449C57.627 305.449 58.2764 305.629 58.8262 305.99C59.3856 306.34 59.8169 306.805 60.1203 307.383C60.4331 307.952 60.5895 308.568 60.5895 309.232C60.5895 309.326 60.5848 309.421 60.5753 309.516C60.5753 309.601 60.5706 309.668 60.5611 309.715H54.4038C54.4417 310.199 54.5745 310.63 54.802 311.009C55.039 311.379 55.3423 311.673 55.7121 311.891C56.0818 312.099 56.4799 312.204 56.9065 312.204C57.3616 312.204 57.7882 312.09 58.1863 311.862C58.594 311.635 58.8736 311.336 59.0253 310.967L60.106 311.265C59.9449 311.625 59.7031 311.948 59.3808 312.232C59.068 312.517 58.6935 312.739 58.2574 312.9C57.8308 313.062 57.3663 313.142 56.8639 313.142ZM54.3612 308.848H59.4235C59.3856 308.364 59.2481 307.938 59.0111 307.568C58.7741 307.198 58.4707 306.909 58.101 306.701C57.7313 306.492 57.3237 306.388 56.8781 306.388C56.442 306.388 56.0391 306.492 55.6694 306.701C55.2997 306.909 54.9963 307.198 54.7593 307.568C54.5318 307.938 54.3991 308.364 54.3612 308.848ZM61.9805 313V305.577H63.2319V313H61.9805ZM61.9805 304.184V302.619H63.2319V304.184H61.9805ZM71.6994 313H70.4481V308.848C70.4481 308.061 70.3248 307.487 70.0784 307.127C69.8414 306.757 69.4764 306.573 68.9834 306.573C68.6421 306.573 68.3009 306.658 67.9596 306.829C67.6278 306.999 67.3292 307.231 67.0637 307.525C66.8078 307.81 66.6229 308.141 66.5091 308.521V313H65.2578V305.577H66.3954V307.17C66.5945 306.819 66.8504 306.516 67.1633 306.26C67.4761 306.004 67.8316 305.805 68.2298 305.662C68.6279 305.52 69.045 305.449 69.4811 305.449C69.9077 305.449 70.2632 305.53 70.5476 305.691C70.8415 305.843 71.069 306.061 71.2302 306.345C71.4008 306.62 71.5193 306.947 71.5857 307.326C71.6615 307.705 71.6994 308.118 71.6994 308.563V313ZM76.1907 313.142C75.5745 313.142 74.9963 313.043 74.4559 312.844C73.9155 312.635 73.451 312.327 73.0623 311.919L73.5458 311.038C73.9724 311.436 74.399 311.72 74.8256 311.891C75.2522 312.061 75.6883 312.147 76.1339 312.147C76.6458 312.147 77.0629 312.052 77.3852 311.862C77.7075 311.663 77.8687 311.374 77.8687 310.995C77.8687 310.72 77.7834 310.516 77.6127 310.384C77.4516 310.251 77.2193 310.142 76.916 310.056C76.6126 309.962 76.2524 309.857 75.8352 309.744C75.3233 309.592 74.892 309.431 74.5412 309.26C74.1905 309.089 73.925 308.876 73.7449 308.62C73.5648 308.364 73.4747 308.042 73.4747 307.653C73.4747 307.179 73.598 306.781 73.8444 306.459C74.0909 306.127 74.4275 305.876 74.8541 305.705C75.2901 305.534 75.7831 305.449 76.3329 305.449C76.8828 305.449 77.3805 305.534 77.826 305.705C78.2716 305.876 78.6555 306.127 78.9779 306.459L78.4091 307.326C78.1152 307.023 77.7929 306.8 77.4421 306.658C77.0913 306.506 76.6979 306.43 76.2618 306.43C76.0059 306.43 75.7547 306.464 75.5082 306.53C75.2617 306.587 75.0579 306.696 74.8967 306.857C74.7356 307.009 74.655 307.227 74.655 307.511C74.655 307.748 74.7166 307.938 74.8398 308.08C74.9726 308.213 75.1622 308.326 75.4086 308.421C75.6646 308.516 75.9727 308.62 76.3329 308.734C76.8923 308.895 77.3757 309.056 77.7834 309.217C78.2005 309.379 78.5228 309.587 78.7503 309.843C78.9779 310.099 79.0916 310.455 79.0916 310.91C79.0916 311.611 78.8262 312.161 78.2953 312.559C77.7644 312.948 77.0629 313.142 76.1907 313.142Z" fill="black" fill-opacity="0.5"/>
<circle cx="52.5" cy="243.5" r="18.5" transform="rotate(-60 52.5 243.5)" stroke="url(#paint0_linear_6_934)" stroke-width="4"/>
<rect x="115.613" y="208" width="105.613" height="131.536" rx="19.2023" fill="#E6E6E6"/>
<path d="M134.242 292V280.157L135.28 281.232H131.545V279.246H136.611V292H134.242ZM144.461 292.182C143.453 292.182 142.542 291.927 141.728 291.417C140.926 290.907 140.294 290.166 139.833 289.194C139.371 288.21 139.141 287.02 139.141 285.623C139.141 284.226 139.371 283.042 139.833 282.07C140.294 281.086 140.926 280.339 141.728 279.829C142.542 279.319 143.453 279.064 144.461 279.064C145.481 279.064 146.392 279.319 147.194 279.829C147.995 280.339 148.627 281.086 149.089 282.07C149.562 283.042 149.799 284.226 149.799 285.623C149.799 287.02 149.562 288.21 149.089 289.194C148.627 290.166 147.995 290.907 147.194 291.417C146.392 291.927 145.481 292.182 144.461 292.182ZM144.461 290.123C145.056 290.123 145.572 289.965 146.01 289.65C146.447 289.322 146.787 288.824 147.03 288.156C147.285 287.488 147.412 286.643 147.412 285.623C147.412 284.591 147.285 283.746 147.03 283.09C146.787 282.422 146.447 281.93 146.01 281.615C145.572 281.287 145.056 281.123 144.461 281.123C143.89 281.123 143.38 281.287 142.93 281.615C142.493 281.93 142.147 282.422 141.892 283.09C141.649 283.746 141.527 284.591 141.527 285.623C141.527 286.643 141.649 287.488 141.892 288.156C142.147 288.824 142.493 289.322 142.93 289.65C143.38 289.965 143.89 290.123 144.461 290.123ZM156.72 292.182C155.712 292.182 154.801 291.927 153.987 291.417C153.185 290.907 152.554 290.166 152.092 289.194C151.631 288.21 151.4 287.02 151.4 285.623C151.4 284.226 151.631 283.042 152.092 282.07C152.554 281.086 153.185 280.339 153.987 279.829C154.801 279.319 155.712 279.064 156.72 279.064C157.74 279.064 158.651 279.319 159.453 279.829C160.255 280.339 160.886 281.086 161.348 282.07C161.822 283.042 162.059 284.226 162.059 285.623C162.059 287.02 161.822 288.21 161.348 289.194C160.886 290.166 160.255 290.907 159.453 291.417C158.651 291.927 157.74 292.182 156.72 292.182ZM156.72 290.123C157.315 290.123 157.832 289.965 158.269 289.65C158.706 289.322 159.046 288.824 159.289 288.156C159.544 287.488 159.672 286.643 159.672 285.623C159.672 284.591 159.544 283.746 159.289 283.09C159.046 282.422 158.706 281.93 158.269 281.615C157.832 281.287 157.315 281.123 156.72 281.123C156.149 281.123 155.639 281.287 155.19 281.615C154.752 281.93 154.406 282.422 154.151 283.09C153.908 283.746 153.787 284.591 153.787 285.623C153.787 286.643 153.908 287.488 154.151 288.156C154.406 288.824 154.752 289.322 155.19 289.65C155.639 289.965 156.149 290.123 156.72 290.123Z" fill="black"/>
<path d="M162.571 293.022L165.944 283.395H166.833L163.461 293.022H162.571ZM166.829 292V291.305L169.741 288.495C170 288.249 170.191 288.035 170.314 287.851C170.443 287.66 170.528 287.486 170.569 287.329C170.617 287.166 170.641 287.009 170.641 286.859C170.641 286.491 170.511 286.202 170.252 285.991C169.993 285.779 169.615 285.674 169.118 285.674C168.736 285.674 168.392 285.739 168.086 285.868C167.779 285.991 167.513 286.185 167.289 286.451L166.594 285.848C166.866 285.5 167.231 285.234 167.687 285.05C168.15 284.86 168.658 284.764 169.21 284.764C169.707 284.764 170.14 284.846 170.508 285.01C170.876 285.166 171.159 285.394 171.356 285.694C171.561 285.994 171.663 286.348 171.663 286.757C171.663 286.989 171.632 287.217 171.571 287.442C171.509 287.667 171.394 287.905 171.223 288.157C171.053 288.409 170.808 288.692 170.487 289.006L167.892 291.509L167.646 291.111H171.969V292H166.829ZM174.016 292V285.255L174.455 285.735H172.401V284.846H175.027V292H174.016ZM179.515 292.082C178.956 292.082 178.456 291.939 178.013 291.653C177.577 291.366 177.229 290.951 176.97 290.406C176.718 289.861 176.592 289.2 176.592 288.423C176.592 287.646 176.718 286.985 176.97 286.44C177.229 285.895 177.577 285.48 178.013 285.193C178.456 284.907 178.956 284.764 179.515 284.764C180.067 284.764 180.564 284.907 181.007 285.193C181.45 285.48 181.798 285.895 182.05 286.44C182.302 286.985 182.428 287.646 182.428 288.423C182.428 289.2 182.302 289.861 182.05 290.406C181.798 290.951 181.45 291.366 181.007 291.653C180.564 291.939 180.067 292.082 179.515 292.082ZM179.515 291.172C179.89 291.172 180.217 291.07 180.496 290.866C180.782 290.661 181.004 290.355 181.161 289.946C181.324 289.537 181.406 289.029 181.406 288.423C181.406 287.817 181.324 287.309 181.161 286.9C181.004 286.491 180.782 286.185 180.496 285.98C180.217 285.776 179.89 285.674 179.515 285.674C179.14 285.674 178.81 285.776 178.524 285.98C178.238 286.185 178.013 286.491 177.849 286.9C177.693 287.309 177.614 287.817 177.614 288.423C177.614 289.029 177.693 289.537 177.849 289.946C178.013 290.355 178.238 290.661 178.524 290.866C178.81 291.07 179.14 291.172 179.515 291.172ZM184.891 290.273L184.84 289.026L188.897 284.846H190.062L186.925 288.157L186.352 288.791L184.891 290.273ZM183.991 292V284.846H185.013V292H183.991ZM189.061 292L186.127 288.587L186.812 287.83L190.256 292H189.061ZM193.315 292.061C192.763 292.061 192.269 291.942 191.833 291.704C191.404 291.465 191.067 291.138 190.822 290.722C190.576 290.307 190.454 289.83 190.454 289.292C190.454 288.753 190.576 288.277 190.822 287.861C191.067 287.445 191.404 287.122 191.833 286.89C192.269 286.652 192.763 286.532 193.315 286.532C193.806 286.532 194.242 286.631 194.623 286.829C195.012 287.019 195.312 287.306 195.523 287.687L194.777 288.167C194.6 287.902 194.382 287.708 194.123 287.585C193.871 287.456 193.598 287.391 193.305 287.391C192.951 287.391 192.634 287.469 192.355 287.626C192.075 287.783 191.854 288.004 191.69 288.29C191.527 288.569 191.445 288.903 191.445 289.292C191.445 289.68 191.527 290.017 191.69 290.303C191.854 290.59 192.075 290.811 192.355 290.968C192.634 291.124 192.951 291.203 193.305 291.203C193.598 291.203 193.871 291.142 194.123 291.019C194.382 290.889 194.6 290.692 194.777 290.426L195.523 290.896C195.312 291.271 195.012 291.561 194.623 291.765C194.242 291.963 193.806 292.061 193.315 292.061ZM200.155 292V290.855L200.104 290.641V288.689C200.104 288.273 199.982 287.953 199.736 287.728C199.498 287.496 199.137 287.381 198.653 287.381C198.333 287.381 198.019 287.435 197.713 287.544C197.406 287.646 197.147 287.786 196.936 287.963L196.527 287.227C196.807 287.002 197.141 286.832 197.529 286.716C197.924 286.594 198.336 286.532 198.765 286.532C199.508 286.532 200.08 286.713 200.482 287.074C200.884 287.435 201.085 287.987 201.085 288.73V292H200.155ZM198.377 292.061C197.975 292.061 197.621 291.993 197.314 291.857C197.014 291.721 196.783 291.533 196.619 291.295C196.456 291.05 196.374 290.774 196.374 290.467C196.374 290.174 196.442 289.908 196.578 289.67C196.721 289.431 196.95 289.241 197.263 289.098C197.583 288.954 198.013 288.883 198.551 288.883H200.268V289.588H198.592C198.101 289.588 197.771 289.67 197.6 289.833C197.43 289.997 197.345 290.194 197.345 290.426C197.345 290.692 197.451 290.906 197.662 291.07C197.873 291.227 198.166 291.305 198.541 291.305C198.909 291.305 199.229 291.223 199.501 291.06C199.781 290.896 199.982 290.658 200.104 290.344L200.298 291.019C200.169 291.339 199.941 291.595 199.614 291.785C199.287 291.969 198.875 292.061 198.377 292.061ZM202.901 292V284.417H203.882V292H202.901Z" fill="black" fill-opacity="0.5"/>
<path d="M149.399 307.881C149.399 307.265 149.504 306.663 149.712 306.075C149.93 305.478 150.243 304.937 150.651 304.454C151.068 303.961 151.575 303.572 152.172 303.288C152.769 302.994 153.447 302.847 154.206 302.847C155.106 302.847 155.879 303.055 156.524 303.473C157.168 303.88 157.647 304.406 157.96 305.051L156.95 305.705C156.751 305.279 156.495 304.942 156.182 304.696C155.879 304.44 155.547 304.259 155.187 304.155C154.836 304.051 154.49 303.999 154.149 303.999C153.589 303.999 153.092 304.112 152.656 304.34C152.229 304.568 151.869 304.871 151.575 305.25C151.281 305.629 151.058 306.056 150.907 306.53C150.764 306.994 150.693 307.464 150.693 307.938C150.693 308.459 150.779 308.962 150.949 309.445C151.129 309.928 151.376 310.355 151.689 310.725C152.002 311.095 152.371 311.388 152.798 311.606C153.224 311.824 153.689 311.933 154.191 311.933C154.542 311.933 154.902 311.872 155.272 311.749C155.642 311.625 155.988 311.436 156.31 311.18C156.633 310.914 156.889 310.573 157.078 310.156L158.145 310.739C157.936 311.241 157.614 311.668 157.178 312.019C156.742 312.37 156.253 312.635 155.713 312.815C155.182 312.995 154.656 313.085 154.135 313.085C153.443 313.085 152.807 312.938 152.229 312.644C151.651 312.341 151.148 311.943 150.722 311.45C150.305 310.948 149.978 310.388 149.741 309.772C149.513 309.146 149.399 308.516 149.399 307.881ZM158.964 310.853C158.964 310.379 159.097 309.971 159.362 309.63C159.637 309.279 160.012 309.009 160.486 308.819C160.96 308.63 161.51 308.535 162.135 308.535C162.467 308.535 162.818 308.563 163.188 308.62C163.557 308.668 163.884 308.743 164.169 308.848V308.307C164.169 307.739 163.998 307.293 163.657 306.971C163.316 306.639 162.832 306.473 162.206 306.473C161.799 306.473 161.405 306.549 161.026 306.701C160.656 306.843 160.263 307.051 159.846 307.326L159.391 306.445C159.874 306.113 160.358 305.866 160.841 305.705C161.325 305.534 161.827 305.449 162.349 305.449C163.297 305.449 164.046 305.715 164.595 306.245C165.145 306.767 165.42 307.497 165.42 308.435V311.578C165.42 311.73 165.449 311.843 165.505 311.919C165.572 311.986 165.676 312.024 165.818 312.033V313C165.695 313.019 165.586 313.033 165.491 313.043C165.406 313.052 165.335 313.057 165.278 313.057C164.984 313.057 164.761 312.976 164.61 312.815C164.467 312.654 164.387 312.483 164.368 312.303L164.339 311.834C164.017 312.251 163.595 312.573 163.074 312.801C162.552 313.028 162.036 313.142 161.524 313.142C161.031 313.142 160.59 313.043 160.201 312.844C159.813 312.635 159.509 312.36 159.291 312.019C159.073 311.668 158.964 311.279 158.964 310.853ZM163.799 311.379C163.913 311.246 164.003 311.113 164.069 310.981C164.136 310.839 164.169 310.72 164.169 310.625V309.701C163.875 309.587 163.567 309.502 163.244 309.445C162.922 309.379 162.605 309.345 162.292 309.345C161.657 309.345 161.14 309.473 160.742 309.729C160.353 309.976 160.159 310.317 160.159 310.753C160.159 310.99 160.22 311.222 160.344 311.45C160.476 311.668 160.666 311.848 160.912 311.99C161.168 312.133 161.481 312.204 161.851 312.204C162.24 312.204 162.609 312.128 162.96 311.976C163.311 311.815 163.59 311.616 163.799 311.379ZM171.346 306.672C170.72 306.682 170.166 306.843 169.682 307.156C169.208 307.459 168.871 307.881 168.672 308.421V313H167.421V305.577H168.587V307.298C168.843 306.786 169.18 306.373 169.597 306.061C170.023 305.738 170.469 305.558 170.933 305.52C171.028 305.52 171.109 305.52 171.175 305.52C171.241 305.52 171.298 305.525 171.346 305.534V306.672ZM176.398 313.142C175.82 313.142 175.293 313 174.819 312.716C174.345 312.431 173.971 312.061 173.696 311.606V313H172.587V302.619H173.838V307.056C174.151 306.573 174.535 306.184 174.99 305.89C175.445 305.596 175.976 305.449 176.583 305.449C177.095 305.449 177.554 305.558 177.962 305.776C178.37 305.985 178.716 306.274 179 306.644C179.294 307.004 179.517 307.416 179.668 307.881C179.83 308.336 179.91 308.815 179.91 309.317C179.91 309.838 179.82 310.331 179.64 310.796C179.469 311.251 179.223 311.659 178.901 312.019C178.578 312.37 178.204 312.644 177.777 312.844C177.36 313.043 176.9 313.142 176.398 313.142ZM176.085 312.061C176.455 312.061 176.796 311.986 177.109 311.834C177.422 311.682 177.692 311.478 177.919 311.222C178.147 310.967 178.322 310.673 178.446 310.341C178.569 310.009 178.63 309.668 178.63 309.317C178.63 308.834 178.526 308.378 178.318 307.952C178.118 307.525 177.834 307.184 177.464 306.928C177.104 306.663 176.682 306.53 176.199 306.53C175.848 306.53 175.521 306.61 175.218 306.772C174.914 306.933 174.644 307.146 174.407 307.412C174.18 307.667 173.99 307.952 173.838 308.265V310.412C173.886 310.649 173.985 310.867 174.137 311.066C174.289 311.265 174.473 311.441 174.691 311.592C174.91 311.734 175.137 311.848 175.374 311.933C175.621 312.019 175.858 312.061 176.085 312.061ZM183.992 313.142C183.376 313.142 182.798 313.043 182.257 312.844C181.717 312.635 181.252 312.327 180.864 311.919L181.347 311.038C181.774 311.436 182.2 311.72 182.627 311.891C183.053 312.061 183.49 312.147 183.935 312.147C184.447 312.147 184.864 312.052 185.186 311.862C185.509 311.663 185.67 311.374 185.67 310.995C185.67 310.72 185.585 310.516 185.414 310.384C185.253 310.251 185.021 310.142 184.717 310.056C184.414 309.962 184.054 309.857 183.637 309.744C183.125 309.592 182.693 309.431 182.342 309.26C181.992 309.089 181.726 308.876 181.546 308.62C181.366 308.364 181.276 308.042 181.276 307.653C181.276 307.179 181.399 306.781 181.646 306.459C181.892 306.127 182.229 305.876 182.655 305.705C183.091 305.534 183.584 305.449 184.134 305.449C184.684 305.449 185.182 305.534 185.627 305.705C186.073 305.876 186.457 306.127 186.779 306.459L186.21 307.326C185.916 307.023 185.594 306.8 185.243 306.658C184.893 306.506 184.499 306.43 184.063 306.43C183.807 306.43 183.556 306.464 183.309 306.53C183.063 306.587 182.859 306.696 182.698 306.857C182.537 307.009 182.456 307.227 182.456 307.511C182.456 307.748 182.518 307.938 182.641 308.08C182.774 308.213 182.963 308.326 183.21 308.421C183.466 308.516 183.774 308.62 184.134 308.734C184.694 308.895 185.177 309.056 185.585 309.217C186.002 309.379 186.324 309.587 186.552 309.843C186.779 310.099 186.893 310.455 186.893 310.91C186.893 311.611 186.627 312.161 186.097 312.559C185.566 312.948 184.864 313.142 183.992 313.142Z" fill="black" fill-opacity="0.5"/>
<circle cx="168.113" cy="243.5" r="18.5" transform="rotate(-60 168.113 243.5)" stroke="url(#paint1_linear_6_934)" stroke-width="4"/>
<rect x="231.225" y="208" width="105.613" height="131.536" rx="19.2023" fill="#E6E6E6"/>
<path d="M262.733 292.182C261.725 292.182 260.814 291.927 260 291.417C259.199 290.907 258.567 290.166 258.106 289.194C257.644 288.21 257.413 287.02 257.413 285.623C257.413 284.226 257.644 283.042 258.106 282.07C258.567 281.086 259.199 280.339 260 279.829C260.814 279.319 261.725 279.064 262.733 279.064C263.754 279.064 264.665 279.319 265.466 279.829C266.268 280.339 266.9 281.086 267.361 282.07C267.835 283.042 268.072 284.226 268.072 285.623C268.072 287.02 267.835 288.21 267.361 289.194C266.9 290.166 266.268 290.907 265.466 291.417C264.665 291.927 263.754 292.182 262.733 292.182ZM262.733 290.123C263.329 290.123 263.845 289.965 264.282 289.65C264.719 289.322 265.059 288.824 265.302 288.156C265.558 287.488 265.685 286.643 265.685 285.623C265.685 284.591 265.558 283.746 265.302 283.09C265.059 282.422 264.719 281.93 264.282 281.615C263.845 281.287 263.329 281.123 262.733 281.123C262.163 281.123 261.652 281.287 261.203 281.615C260.766 281.93 260.419 282.422 260.164 283.09C259.921 283.746 259.8 284.591 259.8 285.623C259.8 286.643 259.921 287.488 260.164 288.156C260.419 288.824 260.766 289.322 261.203 289.65C261.652 289.965 262.163 290.123 262.733 290.123Z" fill="black"/>
<path d="M268.585 293.022L271.957 283.395H272.846L269.474 293.022H268.585ZM272.842 292V291.305L275.755 288.495C276.014 288.249 276.204 288.035 276.327 287.851C276.456 287.66 276.542 287.486 276.582 287.329C276.63 287.166 276.654 287.009 276.654 286.859C276.654 286.491 276.525 286.202 276.266 285.991C276.007 285.779 275.629 285.674 275.131 285.674C274.75 285.674 274.406 285.739 274.099 285.868C273.792 285.991 273.527 286.185 273.302 286.451L272.607 285.848C272.879 285.5 273.244 285.234 273.7 285.05C274.164 284.86 274.671 284.764 275.223 284.764C275.721 284.764 276.153 284.846 276.521 285.01C276.889 285.166 277.172 285.394 277.369 285.694C277.574 285.994 277.676 286.348 277.676 286.757C277.676 286.989 277.645 287.217 277.584 287.442C277.523 287.667 277.407 287.905 277.237 288.157C277.066 288.409 276.821 288.692 276.501 289.006L273.905 291.509L273.66 291.111H277.983V292H272.842ZM280.029 292V285.255L280.468 285.735H278.414V284.846H281.041V292H280.029ZM285.528 292.082C284.97 292.082 284.469 291.939 284.026 291.653C283.59 291.366 283.243 290.951 282.984 290.406C282.732 289.861 282.605 289.2 282.605 288.423C282.605 287.646 282.732 286.985 282.984 286.44C283.243 285.895 283.59 285.48 284.026 285.193C284.469 284.907 284.97 284.764 285.528 284.764C286.08 284.764 286.578 284.907 287.021 285.193C287.463 285.48 287.811 285.895 288.063 286.44C288.315 286.985 288.441 287.646 288.441 288.423C288.441 289.2 288.315 289.861 288.063 290.406C287.811 290.951 287.463 291.366 287.021 291.653C286.578 291.939 286.08 292.082 285.528 292.082ZM285.528 291.172C285.903 291.172 286.23 291.07 286.51 290.866C286.796 290.661 287.017 290.355 287.174 289.946C287.337 289.537 287.419 289.029 287.419 288.423C287.419 287.817 287.337 287.309 287.174 286.9C287.017 286.491 286.796 286.185 286.51 285.98C286.23 285.776 285.903 285.674 285.528 285.674C285.154 285.674 284.823 285.776 284.537 285.98C284.251 286.185 284.026 286.491 283.863 286.9C283.706 287.309 283.627 287.817 283.627 288.423C283.627 289.029 283.706 289.537 283.863 289.946C284.026 290.355 284.251 290.661 284.537 290.866C284.823 291.07 285.154 291.172 285.528 291.172ZM290.904 290.273L290.853 289.026L294.91 284.846H296.075L292.938 288.157L292.366 288.791L290.904 290.273ZM290.005 292V284.846H291.027V292H290.005ZM295.074 292L292.141 288.587L292.825 287.83L296.27 292H295.074ZM299.329 292.061C298.777 292.061 298.283 291.942 297.847 291.704C297.417 291.465 297.08 291.138 296.835 290.722C296.59 290.307 296.467 289.83 296.467 289.292C296.467 288.753 296.59 288.277 296.835 287.861C297.08 287.445 297.417 287.122 297.847 286.89C298.283 286.652 298.777 286.532 299.329 286.532C299.819 286.532 300.255 286.631 300.637 286.829C301.025 287.019 301.325 287.306 301.536 287.687L300.79 288.167C300.613 287.902 300.395 287.708 300.136 287.585C299.884 287.456 299.611 287.391 299.318 287.391C298.964 287.391 298.647 287.469 298.368 287.626C298.088 287.783 297.867 288.004 297.704 288.29C297.54 288.569 297.458 288.903 297.458 289.292C297.458 289.68 297.54 290.017 297.704 290.303C297.867 290.59 298.088 290.811 298.368 290.968C298.647 291.124 298.964 291.203 299.318 291.203C299.611 291.203 299.884 291.142 300.136 291.019C300.395 290.889 300.613 290.692 300.79 290.426L301.536 290.896C301.325 291.271 301.025 291.561 300.637 291.765C300.255 291.963 299.819 292.061 299.329 292.061ZM306.169 292V290.855L306.118 290.641V288.689C306.118 288.273 305.995 287.953 305.75 287.728C305.511 287.496 305.15 287.381 304.666 287.381C304.346 287.381 304.033 287.435 303.726 287.544C303.419 287.646 303.161 287.786 302.949 287.963L302.541 287.227C302.82 287.002 303.154 286.832 303.542 286.716C303.937 286.594 304.349 286.532 304.779 286.532C305.521 286.532 306.094 286.713 306.496 287.074C306.898 287.435 307.099 287.987 307.099 288.73V292H306.169ZM304.39 292.061C303.988 292.061 303.634 291.993 303.327 291.857C303.028 291.721 302.796 291.533 302.633 291.295C302.469 291.05 302.387 290.774 302.387 290.467C302.387 290.174 302.455 289.908 302.592 289.67C302.735 289.431 302.963 289.241 303.276 289.098C303.597 288.954 304.026 288.883 304.564 288.883H306.281V289.588H304.605C304.114 289.588 303.784 289.67 303.614 289.833C303.443 289.997 303.358 290.194 303.358 290.426C303.358 290.692 303.464 290.906 303.675 291.07C303.886 291.227 304.179 291.305 304.554 291.305C304.922 291.305 305.242 291.223 305.515 291.06C305.794 290.896 305.995 290.658 306.118 290.344L306.312 291.019C306.182 291.339 305.954 291.595 305.627 291.785C305.3 291.969 304.888 292.061 304.39 292.061ZM308.914 292V284.417H309.895V292H308.914Z" fill="black" fill-opacity="0.5"/>
<path d="M271.311 313V302.904H277.98V304.041H272.591V307.412H277.127V308.478H272.591V313H271.311ZM278.014 310.853C278.014 310.379 278.146 309.971 278.412 309.63C278.687 309.279 279.061 309.009 279.535 308.819C280.009 308.63 280.559 308.535 281.185 308.535C281.517 308.535 281.867 308.563 282.237 308.62C282.607 308.668 282.934 308.743 283.218 308.848V308.307C283.218 307.739 283.048 307.293 282.706 306.971C282.365 306.639 281.882 306.473 281.256 306.473C280.848 306.473 280.455 306.549 280.076 306.701C279.706 306.843 279.313 307.051 278.895 307.326L278.44 306.445C278.924 306.113 279.407 305.866 279.891 305.705C280.374 305.534 280.877 305.449 281.398 305.449C282.346 305.449 283.095 305.715 283.645 306.245C284.195 306.767 284.47 307.497 284.47 308.435V311.578C284.47 311.73 284.498 311.843 284.555 311.919C284.621 311.986 284.726 312.024 284.868 312.033V313C284.745 313.019 284.636 313.033 284.541 313.043C284.455 313.052 284.384 313.057 284.327 313.057C284.034 313.057 283.811 312.976 283.659 312.815C283.517 312.654 283.436 312.483 283.417 312.303L283.389 311.834C283.067 312.251 282.645 312.573 282.123 312.801C281.602 313.028 281.085 313.142 280.573 313.142C280.08 313.142 279.64 313.043 279.251 312.844C278.862 312.635 278.559 312.36 278.341 312.019C278.123 311.668 278.014 311.279 278.014 310.853ZM282.849 311.379C282.962 311.246 283.052 311.113 283.119 310.981C283.185 310.839 283.218 310.72 283.218 310.625V309.701C282.924 309.587 282.616 309.502 282.294 309.445C281.972 309.379 281.654 309.345 281.341 309.345C280.706 309.345 280.189 309.473 279.791 309.729C279.403 309.976 279.208 310.317 279.208 310.753C279.208 310.99 279.27 311.222 279.393 311.45C279.526 311.668 279.715 311.848 279.962 311.99C280.218 312.133 280.531 312.204 280.9 312.204C281.289 312.204 281.659 312.128 282.01 311.976C282.36 311.815 282.64 311.616 282.849 311.379ZM290.254 312.63C290.15 312.678 290.008 312.739 289.828 312.815C289.648 312.891 289.439 312.957 289.202 313.014C288.965 313.071 288.714 313.1 288.448 313.1C288.145 313.1 287.865 313.047 287.609 312.943C287.354 312.829 287.15 312.659 286.998 312.431C286.846 312.194 286.771 311.9 286.771 311.55V306.558H285.761V305.577H286.771V303.103H288.022V305.577H289.686V306.558H288.022V311.166C288.041 311.431 288.131 311.63 288.292 311.763C288.453 311.886 288.643 311.948 288.861 311.948C289.107 311.948 289.335 311.905 289.543 311.82C289.752 311.734 289.889 311.673 289.956 311.635L290.254 312.63ZM293.96 313.142C293.343 313.142 292.765 313.043 292.225 312.844C291.684 312.635 291.22 312.327 290.831 311.919L291.315 311.038C291.741 311.436 292.168 311.72 292.594 311.891C293.021 312.061 293.457 312.147 293.903 312.147C294.415 312.147 294.832 312.052 295.154 311.862C295.476 311.663 295.638 311.374 295.638 310.995C295.638 310.72 295.552 310.516 295.382 310.384C295.22 310.251 294.988 310.142 294.685 310.056C294.381 309.962 294.021 309.857 293.604 309.744C293.092 309.592 292.661 309.431 292.31 309.26C291.959 309.089 291.694 308.876 291.514 308.62C291.334 308.364 291.244 308.042 291.244 307.653C291.244 307.179 291.367 306.781 291.613 306.459C291.86 306.127 292.196 305.876 292.623 305.705C293.059 305.534 293.552 305.449 294.102 305.449C294.652 305.449 295.149 305.534 295.595 305.705C296.04 305.876 296.424 306.127 296.747 306.459L296.178 307.326C295.884 307.023 295.562 306.8 295.211 306.658C294.86 306.506 294.467 306.43 294.031 306.43C293.775 306.43 293.524 306.464 293.277 306.53C293.031 306.587 292.827 306.696 292.666 306.857C292.504 307.009 292.424 307.227 292.424 307.511C292.424 307.748 292.485 307.938 292.609 308.08C292.741 308.213 292.931 308.326 293.178 308.421C293.433 308.516 293.742 308.62 294.102 308.734C294.661 308.895 295.145 309.056 295.552 309.217C295.969 309.379 296.292 309.587 296.519 309.843C296.747 310.099 296.86 310.455 296.86 310.91C296.86 311.611 296.595 312.161 296.064 312.559C295.533 312.948 294.832 313.142 293.96 313.142Z" fill="black" fill-opacity="0.5"/>
<circle cx="283.725" cy="243.5" r="18.5" transform="rotate(-60 283.725 243.5)" stroke="black" stroke-opacity="0.1" stroke-width="4"/>
<defs>
<linearGradient id="paint0_linear_6_934" x1="52.5" y1="223" x2="52.5" y2="264" gradientUnits="userSpaceOnUse">
<stop offset="0.518486" stop-color="#FFB700"/>
<stop offset="0.526594" stop-color="white" stop-opacity="0.1"/>
</linearGradient>
<linearGradient id="paint1_linear_6_934" x1="168.113" y1="223" x2="168.113" y2="264" gradientUnits="userSpaceOnUse">
<stop offset="0.31839" stop-color="white" stop-opacity="0.1"/>
<stop offset="0.322294" stop-color="#8E99F8"/>
</linearGradient>
<clipPath id="clip0_6_934">
<rect width="336.838" height="193" rx="25" fill="white"/>
</clipPath>
</defs>
</svg>
