<svg width="36" height="36" viewBox="0 0 36 36" fill="none" xmlns="http://www.w3.org/2000/svg">
<path d="M20.2857 7.42864C22.4649 7.42864 24.0131 7.43046 25.1876 7.58837C26.3374 7.74296 26.9998 8.03286 27.4835 8.51653C28.0402 9.07326 28.2825 9.50483 28.4168 10.2742C28.5681 11.1413 28.5714 12.3783 28.5714 14.5715C28.5714 15.0449 28.9551 15.4286 29.4285 15.4286C29.9019 15.4286 30.2857 15.0449 30.2857 14.5715L30.2857 14.4614C30.2857 12.4052 30.2858 11.0123 30.1055 9.97949C29.9051 8.83053 29.4779 8.08656 28.6957 7.30435C27.8404 6.44908 26.7559 6.06951 25.416 5.88937C24.114 5.71432 22.4505 5.71434 20.3502 5.71436H20.2857C19.8123 5.71436 19.4285 6.09811 19.4285 6.5715C19.4285 7.04489 19.8123 7.42864 20.2857 7.42864Z" fill="white"/>
<path d="M6.57138 20.5715C7.04477 20.5715 7.42853 20.9553 7.42853 21.4286C7.42853 23.6219 7.43182 24.8588 7.58313 25.726C7.71738 26.4953 7.95969 26.9269 8.51641 27.4836C9.00008 27.9673 9.66254 28.2572 10.8124 28.4118C11.9868 28.5697 13.535 28.5715 15.7142 28.5715C16.1876 28.5715 16.5714 28.9553 16.5714 29.4286C16.5714 29.902 16.1876 30.2858 15.7142 30.2858H15.6498C13.5495 30.2858 11.8859 30.2858 10.5839 30.1108C9.24402 29.9306 8.1595 29.5511 7.30423 28.6958C6.52202 27.9136 6.09485 27.1696 5.89437 26.0207C5.71414 24.9878 5.71418 23.5949 5.71424 21.5388L5.71424 21.4286C5.71424 20.9553 6.098 20.5715 6.57138 20.5715Z" fill="white"/>
<path d="M29.4285 20.5715C29.9019 20.5715 30.2857 20.9553 30.2857 21.4286L30.2857 21.5387C30.2857 23.5949 30.2858 24.9878 30.1055 26.0207C29.9051 27.1696 29.4779 27.9136 28.6957 28.6958C27.8404 29.5511 26.7559 29.9306 25.416 30.1108C24.114 30.2858 22.4504 30.2858 20.3501 30.2858H20.2857C19.8123 30.2858 19.4285 29.902 19.4285 29.4286C19.4285 28.9553 19.8123 28.5715 20.2857 28.5715C22.4649 28.5715 24.0131 28.5697 25.1876 28.4118C26.3374 28.2572 26.9998 27.9673 27.4835 27.4836C28.0402 26.9269 28.2825 26.4953 28.4168 25.726C28.5681 24.8588 28.5714 23.6219 28.5714 21.4286C28.5714 20.9553 28.9551 20.5715 29.4285 20.5715Z" fill="white"/>
<path d="M15.6498 5.71436H15.7142C16.1876 5.71436 16.5714 6.09811 16.5714 6.5715C16.5714 7.04489 16.1876 7.42864 15.7142 7.42864C13.535 7.42864 11.9868 7.43046 10.8124 7.58837C9.66254 7.74296 9.00008 8.03286 8.51641 8.51653C7.95969 9.07326 7.71738 9.50483 7.58313 10.2742C7.43182 11.1413 7.42853 12.3783 7.42853 14.5715C7.42853 15.0449 7.04477 15.4286 6.57138 15.4286C6.098 15.4286 5.71424 15.0449 5.71424 14.5715L5.71424 14.4614C5.71418 12.4052 5.71414 11.0123 5.89437 9.97949C6.09485 8.83053 6.52202 8.08656 7.30423 7.30435C8.1595 6.44908 9.24402 6.06951 10.5839 5.88937C11.8859 5.71432 13.5495 5.71434 15.6498 5.71436Z" fill="white"/>
<path d="M6.57138 17.1429C6.098 17.1429 5.71424 17.5267 5.71424 18.0001C5.71424 18.4735 6.098 18.8572 6.57138 18.8572H29.4285C29.9019 18.8572 30.2857 18.4735 30.2857 18.0001C30.2857 17.5267 29.9019 17.1429 29.4285 17.1429H6.57138Z" fill="white"/>
</svg>
